<?xml version="1.0" encoding="UTF-8"?>
<!DOCTYPE svg PUBLIC "-//W3C//DTD SVG 1.1//EN" "http://www.w3.org/Graphics/SVG/1.1/DTD/svg11.dtd">
<!-- Creator: CorelDRAW X6 -->
<svg xmlns="http://www.w3.org/2000/svg" xml:space="preserve" width="30.48mm" height="16.9332mm" version="1.1" style="shape-rendering:geometricPrecision; text-rendering:geometricPrecision; image-rendering:optimizeQuality; fill-rule:evenodd; clip-rule:evenodd"
viewBox="0 0 3048 1693"
 xmlns:xlink="http://www.w3.org/1999/xlink">
 <defs>
  <style type="text/css">
   <![CDATA[
    .fil0 {fill:#FEFEFE}
    .fil1 {fill:#0C824B}
    .fil2 {fill:#262459}
   ]]>
  </style>
 </defs>
 <g id="Warstwa_x0020_1">
  <metadata id="CorelCorpID_0Corel-Layer"/>
  <rect class="fil0" width="3048" height="1693"/>
  <g id="_638731632">
   <g>
    <path class="fil1" d="M619 726l11 -45c1,-2 0,-1 1,-2 -1,4 -6,22 -7,30l-6 26c-1,1 -1,2 -2,4l-2 14c0,-25 11,-69 19,-94 3,-7 8,-21 11,-26 -2,7 -11,26 -16,44 -2,8 -4,16 -6,24 -1,3 -5,25 -5,25zm-2 -16l0 0c0,-9 8,-35 11,-44 2,-7 5,-14 7,-20 2,-7 6,-14 8,-20l-1 1c0,0 -1,1 -1,1 -9,20 -8,16 -16,40 -5,14 -9,33 -12,49l1 1c0,1 0,1 0,2 0,5 -1,9 -2,15 1,-2 5,-26 6,-29 4,-17 9,-36 15,-52 2,-4 9,-21 9,-24 -5,12 -11,25 -15,38 -2,7 -4,14 -6,21 -1,5 -5,17 -5,21zm83 -160l0 0c0,0 0,0 0,0 1,-1 0,0 1,-1l5 -6c1,-1 1,-1 2,-2l-2 4c-7,7 -15,20 -21,27l1 -3c-2,1 -4,4 -6,6l10 -15c3,-3 16,-21 19,-22 -1,2 -2,3 -3,4l-8 10 1 -1zm6 -3l0 0 -5 7 24 -25c4,-5 8,-7 12,-12l12 -10c1,-1 1,-1 2,-1 1,-1 2,-2 3,-3l18 -14c9,-6 21,-14 30,-20 3,-2 6,-3 8,-5 -3,1 -5,3 -8,4 -3,1 -5,3 -8,5 -5,3 -11,6 -15,9 -13,9 -18,14 -28,22l-13 12c-2,2 -4,4 -7,6l-18 19c-1,1 -1,2 -3,3 -1,1 -2,2 -3,3zm-4 -8l0 0c2,-2 4,-5 7,-6 -2,4 -7,8 -9,12l21 -23c15,-15 31,-29 48,-41l26 -18c-7,3 -43,29 -51,36l-21 19c3,-4 20,-20 26,-24 3,-3 6,-5 9,-7 9,-7 20,-15 30,-21 3,-2 8,-5 10,-6 -16,7 -46,31 -61,43 -13,11 -25,24 -36,36zm-2 -2l0 0 -12 15 15 -18c1,-2 2,-2 3,-4l7 -7c4,-4 9,-9 13,-13 5,-4 9,-8 14,-13 2,-2 5,-4 7,-6 2,-2 5,-4 8,-6 15,-11 24,-17 39,-27 3,-2 6,-3 8,-5 -11,4 -46,29 -57,38 -1,1 -2,2 -4,3l-26 24c-1,1 0,-1 -5,4 -1,1 -2,2 -3,4 -6,5 -2,3 -5,7 -1,1 -2,3 -3,4zm528 -41l0 0c-3,-2 -5,-3 -7,-5 -26,-20 -54,-37 -85,-50 -6,-3 -12,-5 -18,-7 -5,-2 -14,-4 -18,-6 6,1 24,8 30,9 -2,-3 -12,-5 -15,-8 7,1 28,11 34,14 23,11 55,29 74,46 2,2 4,4 6,6 2,1 5,4 6,6 -2,-2 -4,-3 -6,-5 -2,-2 -4,-3 -6,-5 -14,-11 -21,-16 -36,-26 -10,-6 -44,-25 -55,-27 19,9 32,15 50,26 7,4 40,26 45,32zm-322 -81l0 0c5,0 15,-3 22,-4 14,-2 62,-8 71,-5 -12,0 -24,0 -36,1 -7,0 -28,2 -32,4 7,0 16,-2 23,-2 14,-1 65,-3 72,1 -23,0 -36,-2 -62,0 -15,1 -29,3 -43,5 -4,1 -9,2 -13,2 1,-1 4,-1 4,-2 0,0 0,0 0,0l-7 1zm-304 354l0 0 0 31c1,2 2,21 2,25 2,17 8,56 14,68 -1,-5 -3,-13 -4,-19 -20,-88 -9,-181 31,-261 5,-10 11,-23 18,-30l-11 18c-10,17 -21,42 -27,60 -1,2 -3,9 -3,11 0,3 0,-3 0,1l-2 8c-17,58 -19,121 -7,180 5,24 17,67 29,87 -2,-7 -7,-16 -10,-24 -6,-17 -21,-65 -21,-81 10,49 16,74 39,119 12,23 31,51 48,70l19 21c10,10 30,28 42,37 3,2 12,9 16,11l-23 -18c-8,-6 -15,-12 -22,-19 -2,-2 -3,-3 -5,-5l-15 -15c-5,-5 -16,-17 -19,-22 2,1 5,5 6,7l6 7c11,12 28,28 40,39 7,6 22,18 30,23 34,23 64,38 106,51 14,4 28,7 42,10 8,1 15,3 23,3 4,0 22,1 24,2l21 0c-2,-1 -20,-1 -24,-2 -37,-2 -74,-10 -108,-23 -45,-17 -96,-47 -129,-80 -5,-5 -9,-8 -13,-13 -3,-3 -10,-11 -12,-14 1,1 24,26 31,31 12,10 21,18 35,28 6,4 19,14 26,16 -6,-5 -13,-9 -19,-13 -10,-7 -19,-14 -28,-21l-13 -12c-2,-1 -3,-2 -5,-4 -7,-7 -18,-18 -24,-25 -5,-6 -10,-12 -15,-18 -4,-6 -10,-12 -14,-19 -4,-6 -11,-15 -13,-21l1 1c0,0 0,0 0,0 0,0 0,0 0,0l1 1c0,0 0,0 0,0l-15 -29c-5,-10 -9,-20 -13,-30 -23,-59 -29,-127 -20,-190 1,-6 2,-12 3,-19l4 -18c-1,12 -7,25 -7,37 1,-3 2,-8 2,-12l7 -30c0,-1 1,-2 1,-3 1,-2 0,-1 1,-3l-8 33c-14,71 -6,144 20,211 3,7 10,24 13,28 -1,-3 -11,-26 -14,-33 -14,-38 -22,-75 -24,-117 -2,-47 7,-116 29,-159 -1,5 -5,14 -7,19 -2,7 -4,13 -6,20 -4,12 -8,30 -9,43 5,-20 8,-36 15,-56 6,-18 13,-35 22,-50 8,-16 17,-30 27,-44 6,-8 24,-32 32,-39 6,-6 12,-13 18,-18 6,-5 12,-11 19,-17 14,-11 27,-20 43,-29 23,-13 48,-25 74,-33 5,-2 23,-7 27,-9 -3,-1 -4,0 -6,0 6,-1 14,-4 21,-5 42,-8 81,-8 123,-2 8,1 15,2 23,4 3,1 18,4 20,4l1 0c0,0 0,0 0,0 -2,-1 -4,-2 -6,-2 17,2 71,26 87,35 7,4 19,11 26,15 -1,-4 -21,-15 -26,-18 -9,-5 -18,-10 -29,-15 -10,-5 -21,-9 -31,-12 -6,-2 -11,-4 -17,-5 -3,-1 -15,-3 -18,-5 3,0 7,2 10,2 5,0 -3,-2 8,1 17,5 35,11 51,19 16,8 31,15 45,24 5,3 10,6 14,9 17,13 35,28 50,43 6,6 13,14 19,21 7,8 15,17 21,25 0,1 1,1 1,2 1,2 0,1 2,2 -1,-5 -7,-11 -9,-15 2,1 3,3 4,5 1,2 3,3 4,5 13,19 25,38 35,60 4,8 9,18 11,27 6,20 12,39 16,60 2,11 4,22 5,33 1,5 2,33 3,35 4,-5 -3,-58 -5,-68 -4,-21 -10,-40 -17,-58 -4,-9 -7,-18 -11,-26 -10,-21 -21,-41 -34,-60 -3,-4 -5,-7 -8,-11 2,2 17,24 19,25 -1,-8 -28,-43 -36,-51 -12,-12 -20,-20 -33,-32 -15,-14 -47,-36 -64,-45 -19,-11 -39,-20 -59,-28l5 1c-1,-1 0,0 -1,-1 -2,-2 -7,-3 -9,-4 31,10 64,28 90,46 14,9 27,19 39,29 2,2 5,5 8,6 -1,-6 -42,-37 -49,-41l-28 -18c-1,-2 -4,-3 -5,-4 -7,-4 -15,-8 -23,-12 -39,-17 -64,-23 -106,-29 -7,-1 -14,-2 -20,-2 -5,0 -18,0 -21,-1l-27 0 -24 1c-2,-1 -5,0 -7,0 -58,5 -111,28 -160,58 -17,10 -30,21 -44,32l-20 18c-6,6 -10,10 -16,17l-11 13c-7,8 -19,24 -24,33 -13,20 -31,51 -39,74 -2,6 -9,23 -9,29 3,-8 6,-18 10,-27 8,-22 19,-42 31,-61 2,-3 5,-9 8,-11l-12 20c-11,19 -24,45 -31,66 -9,28 -15,49 -18,79 -1,5 -2,28 -3,30z"/>
    <path class="fil1" d="M662 777l2 -25c0,-4 1,-8 1,-12 1,-4 2,-9 2,-12 0,2 -1,12 -1,15 -3,20 -2,30 -3,50 0,0 0,-1 0,0 0,1 0,-1 -1,-2 -1,2 -1,6 -1,9 -3,-5 1,-52 1,-56 2,-12 5,-38 11,-49 -1,5 -3,13 -4,19 -1,6 -3,14 -4,20 -2,14 -4,30 -3,44zm-4 -13l0 0c0,-14 3,-33 5,-47 2,-9 5,-22 8,-31 1,-3 2,-7 3,-10 -12,31 -19,67 -18,102 0,-2 0,-3 1,-4l2 34c0,-5 0,-10 0,-15 0,-5 0,-11 0,-16 0,-10 1,-19 2,-29 1,-9 2,-18 4,-27 1,-7 5,-19 5,-26 -3,6 -6,25 -8,34l-5 36zm41 -129l0 0c3,-11 27,-46 35,-56 10,-13 32,-38 44,-46l-5 5c-2,2 -3,3 -5,5 -6,7 -8,8 -15,15 -4,5 -8,9 -13,15 -6,7 -11,14 -17,22 -3,4 -5,8 -8,12 -2,3 -5,9 -7,12l14 -21c1,-2 3,-5 5,-7l-14 22c-2,4 -5,8 -7,12 -2,4 -4,8 -6,11l1 -3c-1,1 0,0 -1,1 0,0 -1,1 -1,1 0,0 0,0 0,0zm13 -16l0 0c5,-6 4,-5 8,-12 5,-9 18,-26 25,-34l6 -7c1,-1 1,-1 2,-3 1,-2 1,-1 3,-3l31 -30c-1,1 -2,1 -3,2 -10,9 -12,9 -24,22 -4,4 -9,9 -12,13 -1,1 -1,2 -2,3 -3,4 -6,7 -9,11 -6,7 -12,16 -17,24 -2,4 -6,9 -8,13zm-2 -15l0 0c1,-2 3,-5 5,-6 -2,4 -5,9 -7,13l17 -25c3,-4 6,-8 9,-12 2,-2 3,-4 5,-6 1,-1 2,-2 2,-3l12 -14c1,-1 2,-1 3,-2l8 -8c6,-5 6,-6 11,-10 2,-2 3,-3 5,-5 2,-1 4,-3 6,-5l-26 23 -27 30c-1,1 -6,7 -7,8 6,-8 8,-12 16,-21l3 -4c1,-1 2,-3 3,-4l35 -33c-4,3 -17,13 -21,18 -3,3 -6,6 -10,10 -2,2 -3,4 -5,5l-14 16c-5,6 -21,28 -24,34zm-9 11l0 0c1,-1 14,-23 19,-29 8,-11 15,-20 24,-30 4,-5 17,-17 21,-21 2,-2 4,-4 6,-6 2,-2 5,-4 7,-5l6 -6c2,-2 5,-4 7,-6 -7,4 -20,16 -27,22 -11,10 -31,32 -41,45 -2,2 -4,5 -6,7 -2,3 1,-2 -2,1 -6,8 -5,10 -6,12 -2,5 -7,11 -9,16zm34 -59l0 0 3 -2c1,-1 2,-2 3,-2 -1,3 -3,5 -5,7l36 -35 18 -15c13,-10 33,-23 47,-31 6,-3 12,-6 17,-9 -3,1 -6,3 -9,4 -22,11 -37,20 -57,34 -8,6 -16,13 -22,17l-26 24c-2,2 -5,5 -6,7zm114 -74l0 0c2,0 9,-4 11,-5 26,-12 62,-22 90,-26 26,-4 68,-2 94,2 4,0 27,4 28,4 -2,-1 -6,-2 -8,-3 -2,0 -3,-1 -5,-1l-5 -1c17,1 53,14 68,20 18,8 28,12 44,22 4,3 10,6 13,9l-12 -7c-24,-14 -66,-34 -92,-37 2,0 25,7 29,9 24,9 55,23 76,38 -2,-1 -5,-3 -7,-5 -38,-22 -87,-41 -130,-47 -43,-6 -86,-4 -128,7 -6,2 -12,3 -18,5 -4,1 -15,6 -17,6l14 -4 -33 13 7 -4c-6,0 -14,5 -19,7zm22 -15l0 0c1,0 2,0 3,-1 1,0 2,-1 4,0l-13 6 26 -9c16,-6 42,-11 59,-13l32 -4c-22,0 -44,4 -65,8 -6,1 -14,4 -20,5 7,-5 47,-12 59,-13 -21,-1 -66,13 -85,21zm-220 267l0 0c2,-15 7,-34 11,-48 4,-11 8,-22 12,-33l5 -11c-1,5 -4,11 -6,16 -25,65 -31,136 -15,204 3,11 6,23 10,33 2,6 10,27 13,30 -1,-3 -4,-11 -6,-15 -15,-39 -23,-79 -24,-121 -1,-40 8,-97 25,-135 0,-1 1,-1 1,-2 0,0 0,0 0,0l1 -1c-1,4 -5,14 -7,18 -6,17 -15,44 -15,61 1,-1 1,-4 1,-5 0,5 -2,11 -2,16 -1,6 -1,12 -2,18 -4,56 7,112 28,162 4,10 21,43 27,49 -2,-5 -9,-15 -12,-20 -4,-7 -8,-14 -11,-22 -5,-11 -16,-36 -18,-47 0,4 11,30 13,36 10,23 22,44 36,64 10,14 22,28 34,40 5,5 10,10 15,15l24 20c14,10 30,20 46,29 6,3 11,5 17,8 0,0 -26,-14 -30,-16 -26,-15 -52,-36 -72,-57 -2,-2 -4,-4 -6,-6 4,4 8,9 13,13 21,19 49,40 74,54 11,6 23,12 35,17 42,16 83,25 129,25 9,0 42,-2 48,-4 -7,0 -13,1 -20,2 -81,7 -158,-16 -224,-61 -5,-4 -11,-7 -16,-12 -3,-2 -7,-5 -9,-8 2,1 3,3 5,4 13,10 23,18 37,27 9,6 39,22 49,24 -4,-3 -14,-7 -19,-9 -22,-11 -43,-24 -61,-39l-30 -27c-2,-3 -5,-5 -7,-7 -4,-5 -10,-10 -13,-16l2 2c-1,-2 -3,-4 -4,-6 -39,-53 -62,-102 -69,-170 -2,-19 -4,-60 1,-78 0,11 -4,30 -2,40 1,-17 3,-56 9,-71 -1,8 -5,25 -6,36 -1,13 -2,26 -2,39 0,57 16,114 45,163 4,7 12,21 17,25 -1,-3 -13,-20 -16,-26 -16,-30 -28,-58 -36,-93 -9,-37 -10,-80 -4,-118 2,-13 5,-24 8,-35 0,4 -3,12 -4,17 -4,18 -7,42 -6,60 4,-39 6,-67 20,-104 12,-32 26,-57 43,-81 6,-9 14,-17 21,-26 1,-2 3,-3 4,-4 1,-2 2,-3 4,-4 5,-5 11,-11 16,-15 25,-20 46,-35 75,-50 4,-2 7,-4 10,-5 3,-1 8,-3 10,-6l-4 1c5,-4 27,-11 35,-13 37,-11 85,-14 125,-11 2,0 4,1 6,0 -4,-2 -26,-4 -32,-4 2,0 15,0 19,1 17,2 35,5 52,9 16,4 31,9 47,15 4,1 11,5 15,5 -3,-6 -43,-19 -53,-21 -15,-4 -31,-7 -48,-9 -5,0 -13,0 -17,-1 4,0 11,1 14,0 3,-1 -2,-1 3,-1 29,2 85,18 110,33 17,10 33,20 49,31 8,6 15,12 22,18l21 19c0,-5 -14,-16 -18,-20 11,8 19,19 28,28 6,6 20,25 25,32 18,25 27,46 38,76 5,14 9,29 13,44 1,5 2,11 4,15 3,-5 -10,-49 -12,-56 -6,-16 -13,-34 -22,-48 -13,-22 -18,-32 -35,-52l-20 -24c-1,-2 -3,-3 -4,-5 7,4 11,13 18,17 -2,-7 -23,-26 -29,-31 -4,-4 -14,-12 -18,-15 -24,-19 -54,-36 -83,-47 -16,-6 -40,-15 -57,-18 3,-2 4,-1 -2,-3 -3,-1 -5,-2 -8,-2 9,0 28,6 37,9 12,4 24,8 35,13 16,7 32,15 47,24 4,2 12,8 15,9 -2,-5 -27,-18 -34,-22 -13,-8 -40,-18 -41,-18 -1,-1 -1,0 -1,-1l-6 -3c-26,-10 -53,-16 -81,-18 -38,-3 -79,0 -115,9 -5,1 -7,0 -12,1 -33,8 -70,25 -97,44l-24 18c-16,12 -30,26 -44,41l-13 15c-18,23 -34,49 -47,79 -9,20 -16,42 -21,64 -1,6 -4,19 -4,24z"/>
   </g>
   <g>
    <path class="fil2" d="M1049 835c1,-1 16,-8 21,-11 7,-4 13,-8 19,-13l12 -12 16 -21c0,-1 0,-1 1,-1 -3,8 -14,21 -21,28 -3,3 -5,5 -8,8 -8,6 -10,8 -19,13 -4,3 -16,9 -22,10zm100 -162l0 0c3,-11 8,-22 12,-33 2,-5 5,-11 7,-16 1,-3 8,-13 8,-15 -5,3 -14,21 -18,29 -15,35 -22,70 -35,105 -4,12 -9,22 -15,32 -16,27 -42,47 -72,56 -3,1 -7,2 -9,3 10,-1 24,-7 33,-11 3,-1 7,-5 10,-5l-1 1c0,0 0,0 -1,1 -8,5 -18,10 -27,13 -5,2 -32,8 -36,5 1,-1 2,0 4,0l5 -1c0,0 0,0 0,0 -8,0 -14,0 -22,0 -5,-1 -14,-3 -19,-3 11,2 18,4 30,4l0 1c-37,0 -65,-16 -87,-32 -23,-17 -40,-41 -51,-68 -11,-27 -13,-60 -28,-91 -5,-12 -11,-22 -20,-32 -1,-2 -3,-2 -4,-4 -8,-9 -24,-19 -40,-20l2 1c1,0 2,0 2,1 9,2 18,6 25,12 -7,-3 -12,-9 -32,-12 -2,0 -4,-1 -6,-1 -2,0 -4,0 -5,0 -2,1 0,0 -1,1 7,1 15,0 22,4 16,8 18,6 31,20 2,2 4,4 6,7 2,2 4,5 5,8 0,2 0,-2 -1,1 7,8 16,37 20,49 1,5 3,13 5,18l-7 -30c4,7 14,59 21,76 3,8 9,19 11,22 -3,-3 -5,-9 -7,-12 3,10 16,28 22,35 18,22 40,38 67,49 17,6 29,8 48,10 0,4 -2,26 -3,32 0,7 -1,27 -2,32 -1,-20 4,-41 4,-61 -2,5 -3,42 -4,50 -3,27 -4,51 -5,78 0,7 -2,19 -1,25 0,4 1,8 1,12 0,8 1,32 6,36 1,-4 -1,-8 -1,-13 0,-4 0,0 1,-3 0,-2 0,-3 -1,-6 1,2 2,12 2,15 2,22 3,13 9,27 2,4 2,10 5,12 0,-2 -4,-14 -4,-17 -1,-3 -4,-16 -3,-17 1,2 2,14 5,20 1,2 0,1 2,2 0,-6 -3,-16 -4,-22 -2,-8 -2,-15 -3,-23 -1,-16 -2,-35 -2,-51 0,-7 1,-13 0,-20 -1,16 -1,23 -1,38 -3,-7 2,-103 3,-120 0,-7 0,-23 1,-28 34,-2 62,-12 86,-33l10 -10c14,-15 28,-43 35,-64 5,-13 16,-51 17,-63 -1,1 0,0 -1,1 -2,2 -3,6 -3,9l-6 22c-2,7 -3,4 -4,10 -3,10 -10,35 -15,42 1,-3 3,-8 4,-11 7,-20 13,-41 19,-61 5,-16 11,-32 16,-47 1,-3 1,-4 1,-5 1,-2 2,-4 2,-6 1,-3 0,-2 2,-5 15,-30 27,-33 32,-41 -7,3 -22,21 -26,27 -3,4 -5,7 -7,11 -7,12 -12,24 -17,36 -1,3 -3,11 -5,13z"/>
    <path class="fil2" d="M1037 723c-2,-2 -2,-4 -4,-5l-5 -5c0,0 0,0 0,0 2,0 7,5 9,7 3,3 1,3 1,3zm-14 21l0 0c2,3 6,42 -3,47 -1,-3 1,-6 1,-11 -1,5 -3,11 -8,13 0,-3 2,-2 3,-5 1,-3 -1,-4 -1,-6 -1,-4 3,-8 0,-14 0,7 1,1 -1,7 0,1 0,1 -1,2 -4,-2 -2,-10 -2,-12 0,-2 -1,-3 -1,-4 0,-2 1,-5 1,-9 0,-3 -1,-6 -1,-9 -1,-6 -1,-12 -3,-18 -1,-5 -4,-11 -5,-16 1,1 1,2 2,3l-1 -4c-5,0 -9,1 -12,3 4,-1 6,-3 11,-3 -1,1 -2,1 -4,2 -5,2 -8,3 -12,6 -15,12 -19,38 -14,57 4,14 11,21 24,27 13,6 33,-1 37,-10 -1,1 0,0 -1,1 -1,1 -2,2 -4,4 2,-3 8,-6 12,-20 6,-20 0,-50 -21,-62 -2,-1 -4,-2 -5,-4 7,0 10,4 14,7 -2,-4 -12,-9 -19,-10 1,3 4,8 5,12 6,14 4,16 7,26 1,4 1,11 2,14 0,-6 -2,-11 -1,-16zm-22 -39l0 0 1 1c1,0 1,0 1,1l0 2c-5,1 -6,0 -11,2 -4,1 -6,3 -9,5l3 -3c-4,1 -9,7 -11,10 -3,4 -5,8 -8,13 -12,26 -5,73 33,80 27,5 44,-10 52,-28 3,-7 5,-28 4,-36 -1,-8 -7,-26 -13,-28 1,3 5,10 6,14 2,4 0,1 0,4 1,8 4,6 4,24 0,16 -7,32 -17,38 1,-2 4,-4 9,-11 2,-4 4,-9 6,-14 4,-14 3,-20 -1,-34 -2,-5 -6,-16 -9,-21 -4,-6 -10,-11 -16,-12 -1,0 -14,-3 -16,-5l8 1c-1,-2 -4,-2 -7,-2l-7 -1c0,2 1,1 -1,2z"/>
   </g>
   <path class="fil2" d="M1263 1086c2,-5 7,-12 10,-15 5,-5 15,-7 19,-4 2,2 1,8 0,10 -1,3 -3,5 -6,6 -6,3 -16,3 -23,2zm-11 -81l0 0c3,0 2,-1 4,-2 1,-2 6,-10 8,-8 2,2 -1,13 -2,15 -1,5 -2,10 -4,15 -2,7 -22,87 -22,90l13 0c4,-8 6,-16 10,-23l11 12c6,7 19,18 29,11 3,-2 9,-9 7,-15 -3,1 -3,6 -6,8 -3,2 -7,-2 -9,-4 -3,-3 -12,-12 -14,-15 11,-1 21,-3 27,-10 5,-6 8,-20 -7,-21 -16,-1 -26,8 -33,20 -2,3 -5,9 -7,12 1,-6 20,-79 23,-91 2,-6 4,-15 -4,-16 -12,-2 -24,17 -23,21z"/>
   <path class="fil2" d="M1822 1006c6,0 6,-11 12,-11 2,4 -4,25 -6,30 -3,10 -5,20 -7,30l-11 45c-1,4 -3,12 -4,15l13 0c1,-2 5,-11 7,-14 4,-9 10,-19 16,-27 1,-2 10,-10 14,-4 4,9 -18,42 -7,46 10,4 24,-9 25,-11 2,-6 -6,1 -7,2 -2,1 -3,2 -6,2 -2,-4 6,-23 8,-28 3,-10 10,-22 -6,-22 -25,0 -34,29 -40,35 0,-4 21,-82 24,-93 2,-6 4,-15 -3,-17 -12,-3 -25,16 -24,21z"/>
   <path class="fil2" d="M1457 1105c1,-10 8,-32 20,-36 5,-2 13,-1 14,4 3,7 -3,25 -6,30 -6,10 -17,6 -28,3zm-21 -30l0 0c5,0 5,-8 12,-7 3,5 -3,27 -5,33l-9 -3 -4 11 10 3 -10 38 15 0 8 -34c8,1 10,2 19,-1 38,-13 48,-57 17,-57 -17,0 -23,14 -26,17 0,-5 4,-22 -11,-16 -5,2 -16,10 -16,15z"/>
   <path class="fil2" d="M1642 1067l1 4 -8 23c-3,8 -9,22 3,24 11,2 20,-4 25,-10 6,-6 9,-13 13,-20l1 -1c-1,12 -8,36 -14,45 -7,12 -29,8 -33,4 -2,-3 -1,-6 -1,-9l0 -3c-3,-1 -4,4 -5,7 -3,8 -10,21 10,20 15,0 27,-11 33,-17 14,-14 18,-30 24,-52 2,-6 4,-14 5,-20 -16,0 -13,-1 -15,4 -1,2 -1,3 -2,5 -4,11 -15,35 -27,38 -11,2 -5,-11 -3,-16 4,-13 16,-36 -3,-32 -16,4 -23,20 -13,11 2,-1 5,-6 8,-4z"/>
   <path class="fil2" d="M1885 885c3,1 12,-11 13,-4 0,3 -7,22 -8,25 -3,8 -9,23 3,24 20,2 31,-18 38,-31 0,8 -8,37 -14,46 -3,4 -5,7 -12,7 -5,1 -14,0 -18,-2 -7,-4 0,-14 -4,-13 -2,0 -5,11 -6,13 -2,7 -1,11 6,13 11,3 23,-3 30,-8 19,-14 24,-25 31,-49l8 -32 -14 0c-3,10 -10,24 -14,32 -14,21 -24,18 -21,6 2,-7 11,-31 10,-36 -3,-11 -31,4 -28,10z"/>
   <path class="fil2" d="M1554 879c4,8 -17,39 -5,48 7,6 18,-1 22,-5 4,-4 10,-12 13,-18 0,7 -3,13 1,19 3,5 8,7 16,6 12,-2 21,-13 26,-21 5,-9 10,-29 0,-35 -10,-6 -16,8 -8,17 2,3 5,3 8,5 0,11 -8,23 -17,26 -4,1 -9,0 -11,-3 -4,-7 7,-37 10,-44l-14 1c-4,9 -17,44 -28,44 -4,0 -5,-3 -5,-7 0,-4 7,-23 8,-28 3,-8 2,-14 -9,-12 -6,1 -13,6 -16,8 -3,3 -3,7 2,3 1,-1 5,-5 8,-4z"/>
   <path class="fil2" d="M2212 1069c-1,13 -11,34 -22,38 -19,8 -19,-20 -8,-34 8,-11 17,-6 30,-4zm-7 29l0 0c0,6 -6,32 -13,37 -7,5 -26,5 -30,-1 -3,-4 1,-8 0,-11 -3,0 -4,4 -5,7 -3,7 -7,14 0,18 3,2 7,2 11,2 14,0 27,-11 33,-17 3,-3 9,-9 11,-14 3,-6 5,-12 7,-18 2,-6 4,-13 5,-20 2,-6 4,-14 5,-20 -15,-4 -26,-5 -40,2 -15,6 -34,26 -29,43 2,6 7,10 14,10 15,1 25,-11 31,-18z"/>
   <path class="fil2" d="M2193 888c5,-1 7,-9 11,-7 4,5 -9,39 -11,46l14 0c6,-14 14,-34 26,-44 5,-4 14,-5 11,6 -2,7 -11,31 -10,36 3,11 29,-2 29,-10 -5,0 -7,8 -13,6 -1,-4 6,-21 8,-26 3,-8 10,-21 -2,-23 -15,-3 -26,7 -34,19 -1,2 -6,9 -7,11 0,-7 10,-27 0,-29 -10,-2 -24,11 -22,16z"/>
   <path class="fil2" d="M1700 882c-2,9 -13,30 -21,36 -5,3 -11,3 -13,-2 -3,-9 2,-24 6,-31 8,-11 16,-7 28,-3zm-7 25l0 0c-1,6 -8,23 7,22 7,-1 19,-10 19,-16 -5,0 -10,10 -13,7 -4,-6 11,-38 12,-45 -15,-4 -25,-7 -41,-1 -11,4 -21,14 -25,24 -11,28 15,40 31,22 5,-6 9,-12 10,-14z"/>
   <path class="fil2" d="M2373 1070c-2,7 -9,21 -12,26 -2,4 -6,8 -9,10 -5,3 -11,3 -12,-2 -3,-9 2,-24 6,-31 7,-10 16,-8 28,-3zm-8 26l0 0c-1,5 -2,10 -2,15 0,5 4,7 10,7 5,-1 12,-6 15,-10 1,-1 1,-1 2,-2 1,-1 1,-3 0,-3 -3,-1 -8,9 -12,8 -4,-6 10,-38 12,-46 -13,-5 -28,-6 -41,-1 -34,13 -36,54 -12,54 13,0 20,-10 26,-20 0,0 1,-1 1,-1 1,-1 0,0 1,-1z"/>
   <path class="fil2" d="M2025 1006c3,0 3,-2 6,-6 1,-2 4,-6 6,-5 2,4 -5,25 -6,30l-20 74c-1,4 -3,11 -4,15l14 0c2,-6 4,-14 6,-21l17 -63c2,-8 11,-37 9,-43 -2,-7 -11,-4 -17,1 -2,2 -11,12 -10,17z"/>
   <path class="fil2" d="M2100 1064c6,-1 14,0 16,5 2,4 -1,14 -2,18 -3,11 -7,23 -18,25 -7,1 -14,0 -16,-5 -3,-8 4,-27 8,-34 3,-5 6,-8 12,-9zm4 -4l0 0c-10,1 -17,4 -23,9 -27,19 -22,53 10,49 18,-2 31,-13 37,-26 10,-20 -4,-34 -25,-32z"/>
   <path class="fil2" d="M2349 906c0,-12 3,-26 16,-28 20,-4 15,17 8,23 -6,5 -15,6 -24,5zm47 -19l0 0 0 -5c-2,-4 -1,-5 -5,-7 -3,-2 -6,-2 -10,-3 -21,-1 -42,12 -47,31 -7,27 24,33 44,23 4,-2 14,-7 13,-12 -4,0 -11,8 -22,8 -9,0 -17,-5 -19,-13 14,0 36,-4 43,-17 1,-2 1,-4 2,-6z"/>
   <path class="fil2" d="M1945 1064c6,-1 14,-1 16,5 2,4 -1,15 -2,19 -3,11 -7,23 -18,25 -19,4 -19,-9 -14,-23 4,-12 7,-22 18,-25zm3 -4l0 0c-15,2 -31,12 -37,26 -8,20 5,34 26,32 18,-2 31,-14 37,-26 9,-20 -4,-34 -25,-31z"/>
   <path class="fil2" d="M2130 906c0,-9 2,-18 6,-23 3,-4 17,-9 22,-3 5,5 1,17 -4,21 -6,5 -15,5 -24,5zm41 8l0 0c-4,-2 -8,8 -22,8 -9,0 -17,-5 -18,-13 16,0 44,-5 46,-24 2,-21 -32,-16 -46,-5 -6,5 -12,11 -15,20 -3,12 0,20 7,25 18,12 51,-4 49,-12z"/>
   <path class="fil2" d="M1493 876c20,-4 17,10 13,24 -2,6 -4,11 -6,15 -3,5 -6,8 -12,9 -19,4 -18,-10 -14,-24 4,-12 7,-22 19,-24zm2 -4l0 0c-17,2 -32,14 -37,26 -8,21 5,34 26,31 17,-2 30,-13 36,-26 9,-20 -5,-33 -26,-31z"/>
   <path class="fil2" d="M1163 1093c0,-9 2,-18 7,-23 2,-2 5,-4 10,-5 11,-2 16,3 13,14 -3,13 -18,14 -30,14zm41 7l0 0c-4,1 -10,9 -21,9 -9,0 -17,-5 -19,-13 19,0 44,-6 46,-24 2,-19 -30,-16 -46,-4 -17,13 -23,35 -7,45 19,12 53,-6 47,-13z"/>
   <path class="fil2" d="M1372 1064c20,-3 17,11 13,25 -4,12 -7,22 -19,24 -19,3 -17,-11 -13,-25 4,-12 7,-22 19,-24zm3 -4l0 0c-18,2 -32,13 -38,25 -13,29 18,43 47,24 25,-17 25,-52 -10,-49z"/>
   <path class="fil2" d="M1416 874l-11 0 -1 6 11 -1c-2,10 -12,38 -10,46 3,14 37,1 35,-9 -4,0 -5,6 -13,7 -8,1 -7,-6 -6,-12 2,-10 6,-21 9,-31l15 1 2 -6 -16 1 10 -33c-18,0 -15,-2 -17,8l-7 25z"/>
   <path class="fil2" d="M2019 873c-5,0 -8,-2 -14,-2 -20,0 -35,16 -29,28 4,8 19,9 27,13 6,3 5,9 -1,11 -9,3 -25,-5 -29,-9 0,-3 1,-6 -1,-8 -3,1 -3,7 -5,14 -1,3 -5,12 -4,15 3,0 4,-5 5,-8 6,1 19,9 36,-1 12,-7 18,-20 8,-26 -4,-2 -11,-5 -16,-6 -5,-1 -14,-3 -13,-8 1,-6 10,-6 16,-6 5,1 13,3 16,5 0,4 -1,5 1,8 3,0 4,-10 5,-13 1,-3 4,-11 4,-14 -4,1 -4,5 -6,8z"/>
   <path class="fil2" d="M1379 873c-11,-1 -19,-4 -30,2 -9,4 -18,14 -13,24 4,8 19,9 27,13 7,3 5,9 -1,11 -9,3 -24,-5 -29,-9 0,-3 1,-6 -1,-8 -2,1 -2,1 -3,6 0,3 -1,5 -2,8 -1,3 -5,12 -4,14 3,1 3,-3 6,-8 11,5 24,6 35,0 12,-7 18,-20 9,-26 -3,-2 -11,-5 -16,-6 -5,-1 -14,-3 -14,-8 0,-6 9,-7 15,-6 5,1 13,3 17,5 0,3 -1,6 1,8 3,-1 3,-10 4,-13 1,-4 4,-11 4,-14 -2,0 -3,1 -4,3 -1,2 -2,3 -2,5z"/>
   <path class="fil2" d="M1590 1061c-11,-1 -21,-5 -35,5 -10,7 -14,21 -1,27 5,2 11,4 16,5 5,2 13,5 6,11 -8,7 -27,-3 -32,-8 0,-3 1,-6 -1,-8 -3,1 -3,7 -4,14 -1,3 -5,12 -4,15 3,0 4,-5 6,-8 12,4 23,6 35,0 13,-7 18,-20 9,-26 -3,-2 -11,-5 -16,-6 -5,-1 -14,-3 -14,-8 0,-11 27,-5 32,-1 0,3 -1,6 1,8 3,-1 3,-7 4,-13 1,-3 4,-11 4,-14 -3,0 -5,5 -6,8z"/>
   <path class="fil2" d="M1814 895c1,-1 0,0 0,-1 0,-1 0,0 0,-1 0,-2 -2,-6 0,-9 2,-3 7,-3 11,-2 8,3 13,5 22,7 -7,5 -14,12 -22,19 -4,3 -23,17 -20,20 2,2 6,-4 16,-1 5,1 11,4 17,4 14,0 23,-16 22,-19 -5,0 -3,9 -14,6 -7,-2 -11,-4 -19,-3 1,-2 17,-14 21,-17 4,-3 7,-5 11,-8 2,-2 9,-7 9,-10 -6,-1 -4,4 -19,-2 -11,-5 -24,-10 -34,2 -3,4 -6,16 0,17z"/>
   <path class="fil2" d="M2081 889c-2,2 -3,3 -5,5 -2,2 -4,3 -6,5 -5,4 -34,25 -31,29 3,3 5,-4 16,-1 11,3 21,8 32,-3 2,-2 8,-9 7,-13 -5,0 -3,9 -14,6 -7,-2 -11,-4 -19,-3 1,-2 30,-25 36,-30 2,-2 4,-3 4,-6 -5,-1 -4,4 -15,0 -5,-2 -9,-4 -14,-5 -15,-4 -28,5 -27,18 0,2 2,7 3,5 2,-2 -5,-11 3,-14 5,-2 12,2 15,3 2,1 4,2 7,2 1,0 2,1 4,1 1,0 3,0 4,1z"/>
   <path class="fil2" d="M1739 888c4,0 5,-7 11,-7 2,5 -2,19 -4,24l-7 22 14 0c6,-19 8,-31 21,-44l0 1c0,1 0,1 1,1 1,2 1,4 4,5 10,5 19,-10 10,-16 -13,-8 -21,13 -26,18 0,-5 8,-24 -8,-19 -5,1 -19,11 -16,16z"/>
   <path class="fil2" d="M1777 1061c-8,-1 -10,-3 -19,0 -14,5 -31,18 -33,35 -3,24 23,27 39,16 2,-2 10,-9 9,-13 -2,1 -6,5 -8,7 -8,7 -27,8 -24,-13 1,-8 3,-18 8,-23 6,-6 19,-1 24,3 0,4 -2,8 -1,11 3,0 3,-1 4,-6 1,-7 6,-20 6,-22 -2,0 -3,1 -4,5z"/>
   <path class="fil2" d="M2261 1075c5,1 7,-9 11,-6 4,5 -10,39 -11,46l14 0 13 -44c4,-17 -14,-14 -22,-5 -2,2 -6,5 -6,9z"/>
   <path class="fil2" d="M2286 887l2 0c3,-1 5,-7 10,-7 4,6 -9,38 -11,46l14 0 13 -44c3,-11 -5,-15 -14,-10 -4,2 -15,10 -14,14z"/>
   <path class="fil2" d="M2287 1021c-12,4 -8,22 5,19 12,-3 7,-22 -5,-19z"/>
   <path class="fil2" d="M2312 833c-12,3 -8,22 4,19 5,-1 9,-6 7,-12 -1,-4 -6,-9 -12,-7z"/>
  </g>
  <g id="_638734768">
   <path class="fil1" d="M2946 0l5 0c37,60 70,123 96,188l0 13c-28,-72 -62,-138 -102,-201zm18 0l33 0c16,27 32,56 50,88 -6,-20 -25,-53 -47,-88l5 0c7,12 14,24 20,34 8,14 16,29 23,43l0 87c-24,-57 -52,-112 -84,-165zm51 0l5 0c9,16 19,34 28,52l0 9c-10,-21 -21,-41 -33,-61zm33 1049l0 41 -44 91c-8,18 -18,31 -27,50l-26 44c-2,3 -3,3 -4,6 -3,5 -3,6 -7,11l-41 60c-21,29 -50,64 -74,91 -6,7 -15,16 -20,23 7,-6 14,-14 21,-21 7,-7 14,-15 20,-22 13,-14 28,-30 39,-44 31,-40 42,-61 66,-95l29 -49c4,-9 10,-17 15,-25l38 -77c3,-5 2,-7 5,-14 3,-5 3,-7 6,-13l0 0 4 -12 0 16 0 1 -3 13c1,-3 2,-5 3,-8l0 -1 0 7 -1 2c-2,4 -4,8 -5,14 1,-1 3,-4 5,-8l0 12 -26 56c-33,61 -68,121 -110,176l-65 83c21,-16 106,-133 124,-162l48 -80c-4,15 -44,82 -56,100 -7,11 -14,21 -22,32 -21,30 -48,65 -72,94 -7,8 -19,24 -25,29 44,-37 114,-141 146,-195 21,-35 41,-73 58,-110l0 14 -3 6c-10,18 -18,37 -28,55 -11,18 -20,34 -31,53 -5,9 -11,17 -16,26 -6,9 -11,17 -18,26 -36,50 -57,77 -96,123 -7,8 -15,17 -21,25 30,-23 114,-137 139,-175 3,-5 5,-8 9,-13l59 -100c3,-3 2,1 7,-8l0 45 -42 74c-32,48 -64,95 -105,143 -76,88 -160,168 -254,234l-143 0c20,-11 40,-25 58,-34 -9,3 -11,7 -20,7 10,-11 60,-43 75,-54 72,-52 138,-115 198,-177 42,-44 72,-84 105,-132 17,-24 29,-47 43,-70 14,-23 25,-50 38,-73 12,-21 32,-72 47,-111z"/>
   <path class="fil1" d="M2960 342l18 79c3,13 5,26 7,39 2,12 3,29 6,39 -3,-6 -9,-37 -10,-47 -11,-64 -23,-96 -41,-157 0,0 1,2 1,1 1,-4 1,2 5,7 2,-7 -3,-19 -6,-28 15,13 49,164 51,177 7,39 21,125 15,162 -3,-16 -3,-44 -5,-64 -2,-21 -5,-45 -9,-67 -8,-47 -18,-97 -34,-142zm-201 -342l8 0c74,96 131,206 168,322 13,41 23,83 32,125 7,36 11,91 17,117 3,-50 -27,-177 -41,-229 17,31 24,92 34,127 -2,-60 -48,-187 -74,-244 -37,-83 -78,-153 -126,-217l38 0c9,12 16,22 18,26 -4,-7 -9,-16 -16,-26l4 0c84,117 147,250 180,392 4,19 8,37 12,56 3,17 5,38 9,54 0,-5 -2,-13 -1,-18 15,56 15,147 13,206 -1,16 -5,51 -4,64l2 -5c0,0 0,-1 0,-1 0,-2 1,-4 1,-6 16,-136 -11,-321 -54,-446 -36,-107 -85,-206 -149,-297l5 0c18,25 35,51 50,78 117,197 168,424 153,650 -1,16 -5,40 -3,55l5 -38c3,-38 5,-76 4,-115 0,-49 -3,-113 -12,-161l0 0c6,16 10,60 12,79 1,12 2,23 3,35l0 129c-1,19 -2,37 -4,55 -11,107 -35,204 -70,294l-25 61c-28,59 -58,117 -96,170l-58 79c-63,87 -163,176 -258,233 -15,9 -22,7 -36,16 -45,27 -94,52 -145,74l-110 0c49,-15 96,-31 132,-48 85,-41 186,-105 257,-169 6,-6 25,-24 30,-27l0 0c-13,9 -34,34 -51,39l18 -20 -90 71 39 -27c-7,4 -36,28 -47,36 -17,12 -34,23 -52,35 -77,47 -157,84 -241,110l-66 0c16,-5 36,-10 39,-10 -8,2 -24,7 -42,10l-33 0c123,-31 264,-85 365,-154 22,-15 83,-58 96,-74l-13 6c4,-9 20,-21 27,-28 10,-9 18,-17 27,-27 19,-19 36,-37 52,-56 49,-55 88,-109 133,-175 12,-18 24,-43 34,-63 3,-6 5,-10 8,-17 2,-6 5,-10 8,-16 13,-34 28,-66 39,-101 29,-91 50,-185 55,-296 6,-130 -12,-218 -40,-344 22,53 34,134 41,192 2,17 2,44 5,58 -1,-38 -2,-74 -9,-116 -21,-125 -66,-257 -129,-365 -25,-43 -51,-82 -79,-118zm227 379l0 0c15,45 24,105 29,152 4,29 6,75 7,106 0,10 -1,23 1,33 6,-108 -8,-229 -44,-334 2,7 3,9 0,14l-39 -103c4,15 11,32 16,47 6,16 11,33 15,49 8,31 16,61 22,92 6,30 11,60 14,89 2,24 3,64 8,85 3,-22 -5,-85 -9,-112l-21 -117zm1 443l0 0c2,36 -40,170 -53,207 -18,49 -62,150 -91,186l11 -20c4,-7 8,-11 11,-19 11,-27 19,-32 31,-60 8,-20 17,-35 26,-60 11,-29 21,-55 30,-85 4,-15 8,-29 12,-44 3,-11 8,-32 9,-44l-22 79c-2,8 -5,19 -9,26l23 -84c3,-14 7,-29 9,-43 2,-14 5,-30 8,-42l1 11c3,-3 1,-1 3,-3 1,-1 1,-3 2,-2 0,0 1,-1 1,-1zm-26 63l0 0c-9,23 -8,19 -14,44 -8,33 -29,98 -44,130l-11 27c-3,6 -3,5 -5,11 -2,6 -2,5 -5,11l-68 126c4,-4 5,-6 8,-10 24,-39 28,-39 53,-91 8,-18 18,-35 26,-54 2,-5 2,-7 4,-11 6,-14 11,-29 17,-44 11,-28 21,-62 29,-91 4,-14 10,-34 11,-47zm19 44l0 0c-3,6 -5,18 -11,23 0,-15 8,-32 8,-48l-28 94c-5,16 -11,31 -17,46 -3,8 -6,14 -9,23 -2,4 -3,7 -5,11l-24 56c-2,4 -4,6 -6,10l-16 33c-13,21 -14,26 -23,42 -4,7 -8,13 -12,21 -4,6 -10,15 -12,21l59 -97 55 -120c2,-5 12,-29 12,-32 -12,31 -13,44 -30,80l-7 16c-3,5 -3,10 -6,16l-76 137c11,-12 41,-58 48,-76 5,-13 14,-24 21,-40 4,-7 6,-15 9,-21l28 -62c10,-22 39,-108 42,-131zm18 -42l0 0c-2,4 -23,86 -31,110 -15,43 -29,77 -46,118 -9,20 -35,69 -46,87 -5,9 -9,15 -14,24 -4,8 -10,16 -15,24l-14 24c-5,9 -11,17 -16,24 19,-20 47,-71 62,-96 26,-43 67,-130 84,-180 3,-8 7,-20 10,-28 5,-10 -1,8 5,-6 12,-30 7,-35 8,-42 2,-17 11,-42 11,-58zm-49 218l0 0 -7 11c-2,4 -4,6 -6,10 1,-10 5,-17 8,-26l-77 144 -43 64c-31,43 -80,105 -117,142 -16,16 -31,29 -46,44 7,-5 17,-15 23,-20 58,-55 97,-98 145,-163 18,-25 36,-55 51,-76l58 -101c5,-9 10,-19 12,-29zm-339 411l0 0c-4,2 -6,3 -9,6 -4,3 -6,5 -11,4l36 -32 -72 55c-43,33 -121,76 -171,99l-97 44c68,-21 133,-55 195,-90 18,-10 41,-27 57,-34 -18,21 -135,82 -172,98 65,-19 191,-105 245,-150z"/>
  </g>
  <path class="fil1" d="M107 1688l-5 0c-37,-60 -70,-123 -96,-188l0 -13c28,72 62,138 102,201zm-13 -342l-18 -79c-3,-13 -5,-26 -7,-39 -2,-12 -3,-29 -6,-39 3,6 9,37 10,47 11,64 23,96 41,157 0,0 -1,-2 -1,-1 -1,4 -1,-2 -5,-7 -2,7 3,19 6,28 -15,-13 -49,-164 -51,-177 -7,-39 -21,-125 -15,-162 3,16 3,44 5,64 2,21 5,45 9,67 8,47 18,97 34,142zm201 342l-8 0c-74,-96 -131,-206 -168,-322 -13,-41 -23,-83 -32,-125 -7,-36 -11,-91 -17,-117 -3,50 27,177 41,229 -17,-31 -24,-92 -34,-127 2,60 48,187 74,244 37,83 78,153 126,217l-38 0c-9,-12 -16,-22 -18,-26 4,7 9,16 16,26l-4 0c-84,-117 -147,-250 -180,-392 -4,-19 -8,-37 -12,-56 -3,-17 -5,-38 -9,-54 0,5 2,13 1,18 -15,-56 -15,-147 -13,-206 1,-16 5,-51 4,-64l-2 5c0,0 0,1 0,1 0,2 -1,4 -1,6 -16,136 11,321 54,446 36,107 85,206 149,297l-5 0c-18,-25 -35,-51 -50,-78 -117,-197 -168,-424 -153,-650 1,-16 5,-40 3,-55l-5 38c-3,38 -5,76 -4,115 0,49 3,113 12,161l0 0c-6,-16 -10,-60 -12,-79 -1,-12 -2,-23 -3,-35l0 -129c1,-19 2,-37 4,-55 11,-107 35,-204 70,-294l25 -61c28,-59 58,-117 96,-170l58 -79c63,-87 163,-176 258,-233 15,-9 22,-7 36,-16 41,-25 87,-49 134,-70l74 0c-65,21 -126,54 -185,87 -18,10 -41,27 -57,34 18,-21 135,-82 172,-98 -65,19 -191,105 -245,150l0 0c4,-2 6,-3 9,-6 4,-3 6,-5 11,-4l-36 32 72 -55c43,-33 121,-76 171,-99l91 -41 29 0c-43,13 -85,28 -116,44 -85,41 -186,105 -257,169 -6,6 -25,24 -30,27l0 0c13,-9 34,-34 51,-39l-18 20 90 -71 -39 27c7,-4 36,-28 47,-36 17,-12 34,-23 52,-35 72,-45 148,-80 227,-106l63 0c-9,2 -17,4 -22,6 2,0 12,-3 23,-6l34 0c-118,32 -251,84 -348,150 -22,15 -83,58 -96,74l13 -6c-4,9 -20,21 -27,28 -10,9 -18,17 -27,27 -6,6 -12,12 -18,18 -66,69 -112,132 -167,212 -12,18 -24,43 -34,63 -3,6 -5,10 -8,17 -2,6 -5,10 -8,16 -13,34 -28,66 -39,101 -29,91 -50,185 -55,296 -6,130 12,218 40,344 -22,-53 -34,-134 -41,-192 -2,-17 -2,-44 -5,-58 1,38 2,74 9,116 21,125 66,257 129,365 25,43 51,82 79,118zm-227 -379l0 0c-15,-45 -24,-105 -29,-152 -4,-29 -6,-75 -7,-106 0,-10 1,-23 -1,-33 -6,108 8,229 44,334 -2,-7 -3,-9 0,-14l39 103c-4,-15 -11,-32 -16,-47 -6,-16 -11,-33 -15,-49 -8,-31 -16,-61 -22,-92 -6,-30 -11,-60 -14,-89 -2,-24 -3,-64 -8,-85 -3,22 5,85 9,112l21 117zm-1 -443l0 0c-2,-36 40,-170 53,-207 18,-49 62,-150 91,-186l-11 20c-4,7 -8,11 -11,19 -11,27 -19,32 -31,60 -8,20 -17,35 -26,60 -11,29 -21,55 -30,85 -4,15 -8,29 -12,44 -3,11 -8,32 -9,44l22 -79c2,-8 5,-19 9,-26l-23 84c-3,14 -7,29 -9,43 -2,14 -5,30 -8,42l-1 -11c-3,3 -1,1 -3,3 -1,1 -1,3 -2,2 0,0 -1,1 -1,1zm26 -63l0 0c9,-23 8,-19 14,-44 8,-33 29,-98 44,-130l11 -27c3,-6 3,-5 5,-11 2,-6 2,-5 5,-11l68 -126c-4,4 -5,6 -8,10 -24,39 -28,39 -53,91 -8,18 -18,35 -26,54 -2,5 -2,7 -4,11 -6,14 -11,29 -17,44 -11,28 -21,62 -29,91 -4,14 -10,34 -11,47zm-19 -44l0 0c3,-6 5,-18 11,-23 0,15 -8,32 -8,48l28 -94c5,-16 11,-31 17,-46 3,-8 6,-14 9,-23 2,-4 3,-7 5,-11l24 -56c2,-4 4,-6 6,-10l16 -33c13,-21 14,-26 23,-42 4,-7 8,-13 12,-21 4,-6 10,-15 12,-21l-59 97 -55 120c-2,5 -12,29 -12,32 12,-31 13,-44 30,-80l7 -16c3,-5 3,-10 6,-16l76 -137c-11,12 -41,58 -48,76 -5,13 -14,24 -21,39 -4,7 -6,15 -9,21l-28 62c-10,22 -39,108 -42,131zm-18 42l0 0c2,-4 23,-86 31,-110 15,-43 29,-77 46,-118 9,-20 35,-69 46,-87 5,-9 9,-15 14,-24 4,-8 10,-16 15,-24l14 -24c5,-9 11,-17 16,-24 -19,20 -47,71 -62,96 -26,43 -67,130 -84,180 -3,8 -7,20 -10,28 -5,10 1,-8 -5,6 -12,30 -7,35 -8,42 -2,17 -11,42 -11,58zm49 -218l0 0 7 -11c2,-4 4,-6 6,-10 -1,10 -5,17 -8,26l77 -144 43 -64c31,-43 80,-105 117,-142 16,-16 31,-29 46,-44 -7,5 -17,15 -23,20 -58,55 -97,98 -145,163 -18,25 -36,55 -51,76l-58 101c-5,9 -10,19 -12,29zm-16 1105l-33 0c-16,-27 -32,-56 -50,-88 6,20 25,53 47,88l-5 0c-7,-12 -14,-24 -20,-34 -8,-14 -16,-29 -23,-43l0 -87c24,57 52,112 84,165zm-51 0l-5 0c-9,-16 -19,-34 -28,-52l0 -9c10,21 21,41 33,61zm-33 -1049l0 -41 44 -91c8,-18 18,-31 27,-50l26 -44c2,-3 3,-3 4,-6 3,-5 3,-6 7,-11l41 -60c21,-29 50,-64 74,-91 6,-7 15,-16 20,-23 -7,6 -14,14 -21,21 -7,7 -14,15 -20,22 -13,14 -28,30 -39,44 -31,40 -42,61 -66,95l-29 49c-4,9 -10,17 -15,25l-38 77c-3,5 -2,7 -5,14 -3,5 -3,7 -6,13l0 0 -4 12 0 -16 0 -1 3 -13c-1,3 -2,5 -3,8l0 1 0 -7 1 -2c2,-4 4,-8 5,-14 -1,1 -3,4 -5,8l0 -12 26 -56c33,-61 68,-121 110,-176l65 -83c-21,16 -106,133 -124,162l-48 80c4,-15 44,-82 56,-100 7,-11 14,-21 22,-32 21,-30 48,-65 72,-94 7,-8 19,-24 25,-29 -44,37 -114,141 -146,195 -21,35 -41,73 -58,110l0 -14 3 -6c10,-18 18,-37 28,-55 11,-18 20,-34 31,-53 5,-9 11,-17 16,-26 6,-9 11,-17 18,-26 36,-50 57,-77 96,-123 7,-8 15,-17 21,-25 -30,23 -114,137 -139,175 -3,5 -5,8 -9,13l-59 100c-3,3 -2,-1 -7,8l0 -45 42 -74c32,-48 64,-95 105,-143 74,-86 156,-164 248,-229l142 0c-17,10 -34,22 -50,29 9,-3 11,-7 20,-7 -10,11 -60,43 -75,54 -72,52 -138,115 -198,177 -42,44 -72,84 -105,132 -17,24 -29,47 -43,70 -14,23 -25,50 -38,73 -12,21 -32,72 -47,111z"/>
 </g>
</svg>
