<?xml version="1.0" encoding="UTF-8"?>
<!DOCTYPE svg PUBLIC "-//W3C//DTD SVG 1.1//EN" "http://www.w3.org/Graphics/SVG/1.1/DTD/svg11.dtd">
<!-- Creator: CorelDRAW X6 -->
<svg xmlns="http://www.w3.org/2000/svg" xml:space="preserve" width="56.2186mm" height="36.068mm" version="1.1" style="shape-rendering:geometricPrecision; text-rendering:geometricPrecision; image-rendering:optimizeQuality; fill-rule:evenodd; clip-rule:evenodd"
viewBox="0 0 5622 3607"
 xmlns:xlink="http://www.w3.org/1999/xlink">
 <defs>
  <style type="text/css">
   <![CDATA[
    .fil1 {fill:#188451}
    .fil2 {fill:#31325D}
    .fil3 {fill:#61A375}
    .fil0 {fill:#FEFEFE}
   ]]>
  </style>
 </defs>
 <g id="Warstwa_x0020_1">
  <metadata id="CorelCorpID_0Corel-Layer"/>
  <polygon class="fil0" points="16,11 5626,11 5626,3605 16,3605 "/>
  <g id="_243796544">
   <g>
    <path class="fil1" d="M1155 2170l30 49c3,3 23,32 28,39 20,26 68,82 90,97 -5,-7 -19,-18 -26,-26 -119,-122 -194,-284 -208,-453 -2,-21 -4,-48 -2,-67l1 40c1,38 8,87 17,124 1,4 4,17 5,20 3,5 -2,-5 2,2l4 16c30,111 89,214 168,298 31,33 94,91 133,111 -11,-9 -26,-19 -39,-29 -27,-21 -98,-83 -114,-109 64,70 100,103 181,153 41,26 101,51 147,66l51 15c26,7 75,15 105,17 6,0 20,2 29,2l2 0c2,0 4,0 6,0l-55 -6c-19,-2 -36,-5 -53,-9 -4,-1 -9,-2 -13,-3l-40 -9c-13,-4 -42,-12 -52,-17 4,0 12,4 17,5l17 5c29,9 72,17 103,23 16,3 53,7 70,8 78,3 142,-2 222,-23 26,-7 52,-16 78,-26 14,-5 27,-11 40,-17 7,-3 37,-20 41,-21l33 -21c-5,0 -33,18 -40,21 -62,32 -129,57 -196,70 -90,17 -202,19 -287,-1 -12,-3 -22,-4 -34,-7 -8,-2 -26,-8 -34,-12 2,0 64,17 81,20 30,4 51,8 84,10 14,1 44,3 58,0 -14,-2 -30,-1 -44,-2 -23,-1 -44,-3 -66,-7l-33 -6c-4,-1 -7,-1 -11,-2 -18,-3 -47,-12 -64,-17 -14,-4 -28,-9 -42,-14 -13,-5 -27,-10 -41,-17 -11,-6 -31,-13 -41,-21l2 1c0,0 1,0 1,0 0,0 1,0 1,0l1 0c0,0 0,0 1,0l-53 -32c-18,-12 -34,-23 -51,-36 -96,-72 -173,-176 -220,-287 -5,-11 -9,-22 -13,-33l-10 -33c9,20 13,47 26,66 -1,-6 -5,-15 -8,-22l-18 -56c0,-2 -1,-3 -2,-5 -1,-4 -1,-2 -1,-6l19 61c47,128 133,239 241,320 11,8 39,28 49,32 -4,-4 -44,-30 -55,-39 -59,-47 -111,-99 -155,-164 -50,-73 -104,-194 -110,-285 3,8 5,27 7,38 3,13 6,25 9,38 6,23 17,57 27,78 -12,-36 -22,-67 -31,-105 -8,-35 -13,-69 -15,-102 -2,-34 -2,-66 0,-98 1,-19 7,-76 13,-96 4,-15 6,-32 11,-46 5,-15 9,-30 14,-46 12,-32 23,-59 41,-89 25,-43 53,-88 86,-127 7,-8 31,-34 35,-41 -5,1 -6,4 -10,7 9,-8 19,-20 29,-29 59,-54 123,-93 197,-125 14,-6 27,-12 41,-17 5,-2 33,-11 37,-14l2 -2c0,0 0,0 0,-1 -4,0 -8,2 -13,2 30,-14 139,-28 175,-30 16,-1 42,0 57,-2 -6,-5 -49,-3 -59,-3 -21,1 -39,2 -61,5 -20,2 -42,7 -63,12 -11,3 -22,5 -32,9 -6,2 -27,10 -33,10 6,-3 13,-4 18,-7 8,-4 -7,-1 13,-6 33,-9 67,-17 101,-20 33,-4 64,-6 97,-6 10,0 22,0 32,1 41,4 83,10 123,20 17,4 35,9 52,14 19,7 40,12 59,20 1,0 3,1 4,2 4,1 0,1 5,1 -7,-7 -22,-10 -30,-15 4,1 8,3 12,4 4,2 8,3 12,5 40,18 79,37 116,61 14,10 32,20 45,32 29,26 58,51 85,81 14,15 28,31 41,48 6,8 36,50 40,53 2,-13 -63,-91 -75,-105 -27,-29 -55,-55 -85,-77 -15,-11 -28,-22 -44,-32 -37,-24 -75,-46 -115,-63 -8,-4 -16,-6 -23,-10 6,2 51,21 56,22 -10,-12 -87,-41 -108,-46 -32,-8 -52,-13 -84,-19 -38,-7 -111,-11 -147,-10 -41,1 -82,7 -123,13l10 -3c-3,-1 0,-1 -2,-1 -6,-1 -14,2 -19,2 60,-15 130,-17 191,-15 31,1 61,4 92,9 5,1 14,3 19,2 -8,-9 -105,-17 -119,-18l-63 0c-4,-2 -9,-1 -13,-1 -16,0 -32,1 -48,4 -80,11 -127,26 -201,58 -12,5 -23,11 -35,17 -8,4 -29,17 -36,19l-43 27 -37 26c-4,-1 -8,4 -12,7 -89,66 -152,155 -201,251 -17,33 -28,64 -39,95l-14 49c-4,17 -7,26 -9,43l-5 31c-3,20 -6,58 -7,77 -2,45 1,112 11,159 3,12 8,46 13,55 -3,-17 -8,-35 -11,-53 -8,-43 -11,-86 -11,-130 0,-7 0,-20 1,-26l1 44c1,42 7,97 16,137 13,55 25,93 48,145 4,9 24,46 25,51zm139 -872c8,-6 21,-20 30,-28 21,-18 92,-75 110,-78 -19,13 -38,24 -57,37 -10,7 -43,31 -47,39 12,-8 24,-18 35,-27 21,-16 102,-69 118,-70 -37,23 -60,33 -100,61 -22,16 -44,33 -65,51 -6,5 -13,13 -19,17 1,-2 5,-6 5,-8 0,0 0,-1 0,-1l-10 8 0 0zm601 -188c-6,0 -11,-1 -17,-1 -62,-6 -124,-5 -186,3 -12,2 -23,4 -35,6 -10,2 -26,7 -35,8 11,-5 46,-10 57,-15 -6,-3 -25,3 -32,3 12,-5 55,-10 69,-11 49,-4 117,-8 164,0 6,1 10,2 16,3 4,1 13,2 15,3 -6,0 -9,-1 -14,-2 -5,0 -9,-1 -14,-2 -33,-4 -49,-5 -84,-5 -22,0 -96,3 -115,10 39,-3 66,-8 107,-7 15,0 90,3 104,8l0 0zm-810 589l-4 37 7 -44c1,-4 0,-5 1,-9l4 -18c3,-12 5,-23 8,-35 3,-12 7,-22 10,-34 2,-6 4,-11 6,-17 2,-6 4,-11 6,-17 13,-33 21,-51 37,-83 3,-6 6,-11 8,-17 -14,17 -45,93 -53,118 -1,3 -2,5 -3,9l-19 65c-1,2 -2,-2 -4,12 -1,4 -1,5 -2,9 -4,14 0,7 -1,16 0,3 -1,6 -1,9l0 0zm5 2c1,-5 1,-12 5,-16 1,8 -2,20 -2,29l12 -59c10,-39 21,-77 37,-114l25 -56c-9,12 -41,90 -47,109l-16 52c0,-9 13,-52 18,-64 3,-7 5,-14 8,-21 7,-20 18,-43 27,-63 3,-5 7,-16 10,-20 -19,27 -44,95 -55,130 -9,31 -17,63 -21,94l0 0zm15 9c1,-4 1,-5 2,-8 1,-4 0,-5 1,-8l10 -49c1,-6 3,-11 5,-16l9 -32c9,-22 12,-36 24,-63 4,-10 10,-21 16,-30 3,-5 5,-10 8,-15 3,-5 5,-10 9,-15 -2,4 -5,11 -8,16 -9,19 -21,43 -29,62l-15 40c-1,3 -1,4 -2,7 -1,2 -1,2 -2,4l-8 28c-2,12 -6,21 -8,32l-13 65 2 -17 0 0zm-7 11c0,0 0,-1 0,-1 0,-1 0,-1 0,-2l2 -14c0,-2 0,-3 1,-5l0 8c-4,18 -5,47 -7,64l-1 -6c-3,3 -3,11 -3,15l2 -34c1,-8 5,-49 8,-54 0,4 0,6 -1,8l-3 24 1 -2 0 0zm24 340c-9,-15 -22,-64 -26,-82 -3,-14 -6,-27 -8,-40 -2,-13 -3,-29 -6,-40l0 3c0,0 0,3 0,3 5,41 3,34 14,80 6,28 18,62 29,90l3 0c1,1 2,2 2,3 4,8 7,16 12,25 0,-4 -17,-47 -19,-52 -11,-31 -20,-67 -27,-99 -2,-9 -7,-42 -9,-48 3,24 7,50 14,77 3,14 6,27 10,40 3,9 9,32 12,39l0 0zm18 24l-27 -83c0,-3 0,-2 0,-4 3,7 13,41 18,55l17 48c-1,3 0,4 1,8l11 25c-24,-40 -51,-122 -61,-170 -3,-14 -9,-42 -8,-54 4,14 8,54 18,86 5,15 8,29 14,44 2,6 17,44 17,44l0 0z"/>
    <path class="fil1" d="M1199 2065c-12,-26 -22,-61 -29,-88 -6,-22 -10,-43 -14,-65l-2 -22c3,9 4,22 6,32 23,129 84,250 177,344 15,16 32,31 49,44 10,8 42,34 50,36 -5,-5 -17,-13 -24,-18 -63,-47 -115,-105 -159,-173 -41,-64 -83,-164 -93,-243 0,-1 0,-3 0,-4 0,0 0,-1 0,-1l0 -3c3,7 5,27 7,37 7,34 20,85 36,114 0,-3 -2,-7 -3,-10 5,8 8,20 13,29 5,10 9,20 15,30 48,94 121,173 206,233 17,12 76,49 93,52 -7,-6 -29,-16 -39,-21 -13,-7 -26,-16 -39,-24 -19,-13 -61,-42 -75,-58 5,6 48,38 56,44 38,27 78,49 121,68 31,13 63,24 95,31 13,3 26,7 40,9l59 8c33,3 68,4 102,1 12,-1 23,-3 35,-4 0,0 -57,3 -64,3 -56,1 -119,-6 -173,-21 -5,-1 -11,-3 -15,-4 11,2 22,6 33,8 53,10 119,17 173,13 23,-1 49,-3 73,-8 84,-16 158,-42 233,-88 14,-9 66,-45 73,-54 -10,7 -20,15 -30,23 -124,90 -271,131 -421,124 -13,-1 -25,-1 -37,-4 -6,-1 -16,-2 -22,-4 5,0 8,1 12,1 30,3 54,6 87,6 21,0 85,-2 102,-10 -10,0 -29,3 -40,4 -46,4 -93,3 -138,-2l-76 -14c-6,-2 -13,-3 -19,-5 -12,-4 -26,-6 -37,-12l5 1c-3,-2 -8,-3 -12,-5 -115,-47 -201,-104 -280,-206 -22,-29 -66,-93 -76,-127 10,18 23,52 37,67 -15,-27 -50,-94 -55,-123 7,14 17,44 26,63 10,22 22,44 35,66 57,92 139,168 233,218 13,7 39,21 52,24 -5,-4 -41,-20 -52,-26 -56,-32 -103,-66 -150,-115 -51,-52 -95,-119 -124,-187 -10,-23 -16,-43 -22,-64 4,7 8,22 11,32 12,32 30,76 50,102 -33,-67 -56,-114 -71,-188 -13,-63 -14,-119 -11,-174 1,-21 5,-42 8,-62 0,-4 2,-7 2,-10 1,-4 1,-7 2,-10 3,-13 6,-28 10,-40 21,-57 40,-102 71,-155 4,-6 7,-13 12,-19 3,-5 10,-14 11,-19l-6 5c5,-11 33,-44 43,-55 49,-55 124,-107 190,-142 3,-2 8,-3 9,-6 -9,1 -45,20 -56,26 3,-1 25,-15 31,-17 29,-14 62,-26 93,-36 30,-10 59,-17 90,-23 8,-2 23,-3 30,-6 -11,-6 -88,13 -107,18 -29,8 -58,19 -85,33 -9,4 -22,12 -29,15 6,-4 19,-10 23,-14 5,-4 -4,0 4,-4 48,-25 156,-55 209,-56 38,-1 74,-1 111,2 19,1 36,4 54,7l53 9c-5,-7 -39,-11 -48,-14 26,2 50,12 74,17 16,4 58,21 72,27 53,24 89,48 137,85 22,17 44,38 64,58 7,7 14,15 21,21 1,-11 -65,-70 -75,-79 -26,-21 -55,-42 -83,-56 -43,-22 -61,-33 -108,-50l-56 -18c-4,-1 -8,-1 -12,-3 15,0 31,10 46,9 -10,-9 -63,-18 -77,-22 -10,-3 -35,-5 -43,-6 -57,-6 -123,-4 -180,6 -31,6 -80,15 -110,28 3,-6 5,-5 -6,-2 -5,2 -10,3 -14,5 14,-9 52,-18 69,-23 23,-6 46,-10 69,-14 34,-5 66,-8 99,-9 8,0 26,1 33,-1 -8,-5 -61,-3 -76,-3 -29,1 -83,11 -84,11 -2,0 -1,0 -2,0l-12 0c-51,8 -101,27 -148,51 -64,32 -128,79 -177,129 -7,7 -11,7 -18,14 -45,45 -89,109 -112,167l-21 53c-14,35 -23,72 -30,109l-6 38c-7,56 -7,113 2,175 6,41 16,84 30,123 4,10 12,35 18,43zm91 -648c2,-2 3,-3 4,-4 2,-2 3,-4 6,-4l-16 23 33 -41c20,-25 57,-59 82,-80l49 -38c-35,21 -67,50 -97,78 -9,8 -19,21 -27,27 7,-14 64,-65 83,-79 -34,20 -93,86 -116,119l0 0zm-22 46c2,-2 10,-15 13,-19 30,-46 78,-97 120,-131 38,-32 108,-70 154,-91 6,-3 47,-19 49,-21 -4,0 -12,3 -16,4 -3,1 -6,2 -9,3l-9 2c28,-15 100,-31 129,-36 37,-6 56,-8 92,-8 9,0 22,0 29,1l-26 0c-53,1 -139,11 -185,31 3,-2 47,-13 55,-14 48,-9 112,-18 161,-14 -5,1 -11,0 -16,0 -83,1 -181,19 -256,52 -76,34 -143,79 -200,138 -9,9 -16,17 -24,27 -5,6 -18,24 -21,27l18 -20 -41 53 8 -14c-9,5 -17,22 -23,29l0 0zm-111 233l3 -7c1,-2 1,-4 2,-7 1,6 0,10 -1,16l23 -92 15 -42c11,-29 30,-70 46,-97 7,-11 13,-21 20,-31 -3,4 -8,11 -10,15 -25,39 -41,69 -58,112 -7,17 -12,36 -18,50l-18 65c-2,6 -3,12 -3,18l0 0zm3 129c0,-3 1,-52 2,-66 2,-26 5,-47 9,-73 2,-13 10,-43 13,-55 2,-6 3,-10 4,-16 1,-5 4,-10 5,-15l4 -16c2,-5 4,-11 5,-16 -8,14 -16,46 -21,63 -9,28 -19,82 -22,113 0,5 -1,12 -2,17 -1,7 -1,-4 -2,4 -3,18 1,21 1,25 1,10 0,25 2,34l0 0zm4 -26c1,-4 0,-10 3,-14 2,9 0,19 2,28l3 -57c1,-10 2,-19 3,-28 1,-5 1,-9 2,-14 0,-3 1,-4 1,-7l6 -35c1,-3 2,-4 2,-7l4 -21c4,-14 4,-16 7,-27 1,-4 2,-9 4,-14 1,-4 3,-10 4,-13l-20 63 -14 75c0,3 -3,18 -2,20 2,-19 1,-26 5,-49l2 -10c1,-3 0,-6 1,-10l23 -88c-4,8 -15,39 -16,50 -1,8 -4,15 -6,25 -1,5 -1,9 -2,13l-7 39c-2,14 -7,66 -5,79l0 0zm17 22c2,-14 2,-12 2,-27 0,-20 3,-59 6,-79l2 -17c1,-4 1,-3 1,-7 0,-4 0,-3 2,-7l20 -80c-2,3 -2,4 -3,6 -8,25 -10,26 -17,59 -2,11 -5,22 -7,34 0,3 0,4 -1,7 -2,9 -2,18 -3,27 -2,17 -3,38 -3,55 0,8 -1,20 1,28l0 0zm-6 39c-6,-20 -2,-101 1,-124 3,-30 14,-93 25,-117l-3 13c-1,5 -3,7 -3,12 -2,17 -6,21 -9,38 -2,12 -4,22 -6,37 -2,18 -4,34 -5,52 0,9 -1,17 -1,27 0,7 0,19 1,26l1 -48c0,-5 0,-12 2,-16l-1 51c0,8 0,17 1,25 1,8 2,17 1,25l-2 -6c-1,2 0,1 -1,2 0,1 0,2 -1,2 0,0 0,1 0,1l0 0zm63 249c-15,-23 -28,-56 -38,-81 -6,-16 -14,-41 -19,-58 -1,-6 -3,-13 -5,-18 12,62 37,127 72,182 -2,-4 -3,-4 -2,-8l36 52c-4,-8 -10,-16 -16,-24 -5,-8 -11,-17 -16,-25 -9,-16 -18,-32 -26,-49 -8,-16 -14,-32 -20,-48 -5,-13 -11,-35 -17,-46 1,12 15,47 21,62l28 63 0 0zm20 17l-21 -42c-3,-7 -7,-14 -10,-21 -3,-7 -6,-16 -9,-21 2,3 10,20 12,25 15,34 27,51 45,82 0,0 -1,-1 -1,-1 0,2 -1,-1 -4,-3 0,4 5,10 7,15 -10,-5 -51,-85 -54,-92 -9,-21 -29,-67 -31,-89 4,9 8,24 12,35 4,12 9,25 14,36 11,25 24,52 39,75l0 0z"/>
    <path class="fil2" d="M2093 1608c6,-21 15,-42 23,-63 4,-10 9,-21 14,-29 3,-5 15,-24 15,-28 -9,7 -27,40 -34,54 -29,67 -42,133 -67,198 -8,22 -17,42 -28,60 -31,51 -79,89 -137,105 -6,2 -13,3 -18,5 18,-1 46,-13 63,-22 5,-3 14,-9 19,-10l-1 1c-1,1 0,1 -2,1 -14,10 -35,19 -51,24 -9,3 -61,16 -68,10 2,-1 5,-1 7,-1l9 -1c0,0 1,0 1,0 -14,0 -27,1 -41,-1 -10,-1 -27,-5 -35,-5 20,4 33,8 57,8l1 2c-70,0 -123,-30 -164,-61 -43,-33 -76,-77 -96,-129 -20,-51 -25,-114 -52,-173 -10,-23 -21,-41 -37,-60 -2,-3 -5,-5 -8,-7 -16,-16 -45,-36 -76,-38l4 2c1,0 3,1 4,1 17,4 35,12 48,22 -13,-5 -22,-17 -61,-23 -4,-1 -8,-1 -12,-1 -3,0 -7,-1 -10,0 -5,1 -1,0 -3,1 13,3 29,1 41,7 30,15 34,11 59,37 4,4 7,8 11,13 3,5 7,10 10,14 -1,4 0,-3 -1,3 14,15 31,70 37,94 3,10 5,25 9,34l-14 -57c7,13 27,112 40,144 6,15 18,36 20,42 -5,-6 -9,-17 -14,-23 5,18 30,53 42,67 34,41 75,73 127,93 31,12 55,16 91,19 1,7 -4,49 -5,61 -1,13 -2,51 -5,61 -3,-38 8,-78 8,-116 -4,9 -6,79 -8,95 -5,51 -8,97 -9,147 0,13 -3,36 -2,48 1,8 2,15 2,23 0,15 1,60 11,67 2,-8 -2,-16 -2,-24 0,-7 0,1 1,-5 1,-4 -1,-6 -1,-11 2,4 4,22 5,29 4,43 5,24 17,50 4,8 4,18 9,24 0,-4 -7,-26 -8,-32 -1,-5 -7,-30 -6,-32 2,5 4,26 10,38 2,4 1,2 4,4 0,-11 -5,-30 -7,-42 -3,-16 -4,-28 -5,-44 -3,-31 -4,-65 -4,-97 0,-13 1,-26 0,-38 -2,30 -1,43 -1,72 -6,-14 4,-195 5,-227 0,-13 0,-43 2,-53 64,-4 117,-23 162,-62l19 -19c26,-28 53,-82 67,-121 9,-24 31,-96 32,-119 -1,1 -1,0 -2,2 -3,5 -5,12 -6,17l-12 42c-4,14 -5,8 -8,20 -5,18 -18,66 -28,80 2,-7 6,-15 8,-22 14,-37 24,-77 36,-115 9,-30 20,-60 31,-89 2,-5 1,-7 3,-10 1,-3 3,-7 4,-10 1,-5 0,-4 3,-10 28,-56 50,-62 60,-77 -13,5 -41,40 -49,51 -5,7 -9,13 -13,20 -13,22 -22,45 -31,69 -2,5 -6,21 -9,24zm-189 307c2,-1 30,-14 40,-21 13,-8 25,-15 35,-25l23 -22 31 -41c1,-1 1,-1 2,-2 -6,15 -27,41 -39,53 -5,5 -10,10 -15,14 -14,12 -20,15 -35,25 -8,5 -31,16 -42,18l0 0z"/>
    <path class="fil2" d="M1813 1667l2 1c1,1 1,0 3,1l0 4c-10,1 -11,-1 -21,3 -7,3 -11,6 -17,9l5 -5c-7,3 -17,13 -21,18 -6,7 -10,15 -14,24 -22,50 -9,138 62,151 50,9 84,-19 99,-52 6,-14 9,-53 7,-69 -2,-15 -13,-48 -25,-54 1,5 9,19 12,27 3,8 -1,1 0,8 2,16 7,11 7,45 0,30 -14,61 -32,72 3,-4 8,-8 16,-22 5,-8 8,-17 11,-27 7,-26 6,-39 -1,-65 -3,-10 -11,-30 -17,-40 -7,-11 -18,-20 -31,-22 -3,0 -27,-6 -30,-9l15 3c-3,-4 -7,-3 -14,-5l-13 -3c0,5 1,2 -2,3zm42 75c4,6 12,79 -6,89 -3,-5 3,-11 3,-20 -3,10 -6,21 -15,25 0,-7 4,-4 6,-9 2,-6 -1,-8 -2,-12 -2,-7 5,-15 1,-26 0,13 2,1 -1,13 -1,3 1,1 -2,4 -7,-3 -3,-19 -3,-23 0,-3 -1,-5 -1,-8 0,-5 2,-10 1,-16 0,-6 -1,-12 -2,-18 -1,-11 -2,-23 -5,-34 -3,-9 -8,-21 -9,-30 2,2 2,3 4,6l-2 -7c-10,1 -16,2 -24,7 7,-2 12,-5 21,-5 -2,2 -4,3 -7,4 -9,3 -16,6 -23,12 -28,23 -37,72 -26,107 8,27 21,40 45,51 24,11 62,-2 70,-19 -2,1 -1,0 -3,2 -3,2 -3,4 -8,7 3,-6 15,-11 23,-38 12,-39 0,-94 -39,-118 -3,-2 -8,-3 -10,-7 12,0 20,8 27,12 -5,-7 -23,-17 -36,-19 2,7 7,14 10,22 11,26 8,30 13,50 2,8 3,20 5,27 1,-11 -3,-21 -3,-30l0 0zm27 -41c-3,-3 -4,-7 -8,-10l-9 -9c0,0 0,0 -1,-1 5,1 13,9 16,13 5,6 1,6 1,6l0 0z"/>
   </g>
   <g>
    <path class="fil2" d="M2428 1942c5,0 5,-2 7,-4 3,-4 11,-18 15,-16 4,3 -2,24 -3,28 -2,10 -5,19 -7,29 -3,13 -42,165 -42,171l24 0c7,-15 11,-29 20,-43l20 22c12,13 35,35 55,22 6,-4 17,-17 13,-29 -6,2 -6,11 -12,15 -6,4 -14,-4 -17,-7 -6,-5 -23,-22 -26,-28 21,-3 39,-5 50,-18 10,-11 15,-37 -13,-39 -31,-3 -49,15 -63,39 -4,6 -9,17 -13,22 2,-11 38,-149 44,-172 3,-12 7,-28 -7,-31 -23,-4 -46,32 -44,41zm20 152c3,-9 14,-23 19,-28 10,-9 29,-14 35,-7 4,4 2,14 0,19 -2,6 -6,9 -12,12 -11,5 -30,5 -43,4l0 0z"/>
    <path class="fil2" d="M3505 1942c10,0 12,-22 22,-20 4,7 -8,46 -11,57 -5,19 -9,38 -14,57l-21 85c-2,7 -6,22 -7,28l25 0c3,-3 10,-22 12,-27 8,-17 19,-37 31,-50 3,-3 20,-19 27,-8 8,18 -34,79 -13,88 18,8 46,-17 48,-21 4,-12 -11,2 -13,4 -3,3 -6,5 -11,3 -3,-7 12,-44 15,-53 6,-18 19,-42 -11,-42 -48,-1 -64,54 -75,67 1,-8 40,-156 45,-175 3,-11 8,-29 -5,-33 -23,-6 -48,31 -45,40z"/>
    <path class="fil2" d="M2776 2074c10,-1 10,-15 22,-13 5,10 -5,51 -9,62l-17 -6 -7 21 18 6 -18 72 28 0 15 -65c16,1 19,4 35,-1 71,-24 91,-108 32,-107 -32,1 -43,27 -50,33 0,-9 8,-41 -21,-31 -10,3 -30,19 -29,29zm39 56c2,-19 16,-61 38,-69 10,-4 24,-3 27,7 5,14 -6,47 -12,57 -12,19 -32,11 -53,5l0 0z"/>
    <path class="fil2" d="M3165 2058l1 7 -15 43c-5,15 -17,42 5,45 21,3 38,-8 48,-19 12,-12 17,-25 25,-38l2 -3c-3,24 -16,69 -26,86 -14,23 -55,16 -62,8 -4,-5 -3,-11 -2,-16l0 -6c-5,-1 -7,7 -9,12 -6,16 -19,39 20,38 28,-1 50,-20 63,-33 27,-27 34,-57 45,-98 3,-11 8,-27 10,-38 -30,0 -25,-2 -28,8 -1,3 -2,6 -3,9 -8,20 -29,67 -50,72 -20,4 -9,-21 -6,-31 8,-26 30,-68 -6,-60 -31,7 -44,37 -25,22 3,-2 10,-11 15,-7z"/>
    <path class="fil2" d="M4230 2117c-1,12 -12,61 -25,70 -14,10 -49,10 -56,-1 -5,-8 2,-15 -1,-21 -6,0 -7,7 -9,13 -5,14 -12,27 -1,34 6,3 13,4 20,4 26,-1 51,-20 63,-32 6,-6 16,-18 21,-26 6,-10 10,-22 14,-34 4,-12 7,-25 10,-37 3,-12 8,-26 10,-38 -29,-8 -49,-9 -77,3 -28,12 -64,50 -54,80 3,11 13,19 27,19 28,1 47,-20 58,-34zm14 -55c-2,25 -20,63 -42,72 -36,15 -36,-38 -15,-65 15,-20 32,-12 57,-7l0 0z"/>
    <path class="fil2" d="M4534 2112c-1,9 -5,18 -4,28 1,9 8,14 18,13 10,-1 22,-12 29,-19 1,-1 3,-3 4,-4 1,-2 2,-5 1,-6 -6,-2 -14,17 -23,14 -7,-12 19,-71 23,-86 -24,-10 -53,-11 -77,-1 -64,26 -68,102 -23,103 25,0 38,-19 50,-37 0,0 1,-2 1,-2 1,-1 0,-1 2,-2zm14 -49c-3,13 -16,39 -23,49 -4,7 -11,15 -17,19 -10,6 -20,5 -23,-5 -6,-17 3,-46 11,-58 13,-19 30,-15 53,-6l0 0z"/>
    <path class="fil2" d="M3889 1942c5,0 6,-3 11,-10 2,-4 7,-11 12,-9 4,7 -9,48 -12,57l-38 141c-2,8 -6,21 -7,28l27 0c4,-12 7,-27 11,-39l32 -119c4,-14 21,-70 17,-81 -4,-14 -21,-8 -33,1 -4,3 -21,22 -19,31z"/>
    <path class="fil2" d="M4039 2043c-19,2 -32,8 -44,16 -51,36 -42,100 20,93 33,-4 59,-25 71,-49 18,-38 -7,-64 -47,-61zm-7 8c12,-3 27,-1 30,9 3,8 -2,27 -4,34 -6,21 -13,43 -35,48 -12,2 -27,0 -30,-9 -6,-15 8,-51 15,-65 5,-10 11,-15 24,-18l0 0z"/>
    <path class="fil2" d="M3745 2043c-29,3 -59,22 -70,49 -16,39 9,65 49,60 33,-4 59,-26 70,-49 18,-39 -8,-64 -48,-60zm-6 8c12,-3 27,-1 31,9 3,8 -2,27 -4,35 -6,21 -13,43 -34,47 -36,7 -35,-18 -27,-44 7,-23 13,-42 35,-47l0 0z"/>
    <path class="fil2" d="M2335 2122c-7,2 -19,16 -41,16 -18,0 -33,-9 -35,-24 37,0 84,-12 87,-45 3,-36 -58,-31 -88,-8 -33,25 -43,67 -13,85 36,22 101,-11 90,-24zm-77 -14c0,-17 3,-34 12,-44 4,-4 10,-8 18,-9 20,-3 30,5 25,26 -5,25 -33,27 -56,27l0 0z"/>
    <path class="fil2" d="M2659 2043c-34,3 -61,25 -71,48 -25,54 35,82 89,45 48,-32 47,-99 -18,-93zm-6 8c38,-6 31,22 24,47 -7,23 -13,42 -36,45 -36,5 -32,-21 -24,-47 7,-22 14,-42 36,-45l0 0z"/>
    <path class="fil2" d="M3067 2046c-21,-1 -41,-9 -67,9 -20,14 -27,40 -3,51 9,5 20,7 31,10 10,3 24,10 12,21 -16,14 -50,-6 -60,-14 0,-6 2,-12 -2,-16 -5,2 -5,14 -8,26 -2,7 -9,22 -7,28 6,0 8,-10 11,-15 22,8 44,12 66,0 24,-14 34,-37 16,-50 -6,-4 -22,-9 -30,-11 -9,-3 -27,-6 -27,-15 0,-20 51,-10 61,-1 0,5 -1,11 1,15 5,-1 5,-13 8,-25 2,-7 8,-21 8,-26 -6,0 -9,9 -11,15z"/>
    <path class="fil2" d="M3421 2046c-16,-2 -19,-5 -36,0 -27,9 -59,34 -63,65 -5,45 44,52 74,30 5,-3 20,-17 17,-25 -5,2 -12,10 -16,14 -15,14 -50,16 -46,-25 2,-15 7,-35 15,-43 12,-11 36,-2 45,6 0,7 -3,15 -1,21 5,0 5,-1 7,-11 3,-13 12,-38 11,-42 -5,0 -5,2 -8,10z"/>
    <path class="fil2" d="M4336 2073c9,1 14,-18 22,-12 7,9 -19,73 -20,87l27 0 25 -83c7,-33 -26,-26 -42,-9 -4,4 -12,9 -11,17z"/>
    <path class="fil2" d="M4385 1970c-23,7 -14,41 9,35 23,-6 14,-42 -9,-35z"/>
    <path class="fil2" d="M3329 1715c5,1 22,-22 24,-8 1,5 -13,42 -15,47 -5,15 -18,43 7,46 38,4 59,-34 72,-59 0,15 -15,70 -26,87 -5,8 -10,13 -23,14 -10,1 -26,1 -34,-4 -14,-8 1,-27 -7,-25 -4,1 -10,20 -12,26 -5,13 -2,20 10,24 22,6 44,-5 57,-15 36,-26 46,-48 58,-93l16 -61 -26 0c-6,19 -18,46 -27,60 -26,39 -45,34 -40,11 3,-13 21,-58 18,-67 -7,-22 -58,7 -53,19z"/>
    <path class="fil2" d="M2704 1704c7,15 -32,73 -9,91 14,11 33,-2 41,-9 8,-7 18,-23 24,-35 -1,13 -5,25 1,37 6,10 16,14 31,11 23,-4 39,-24 49,-40 10,-16 20,-56 0,-67 -18,-11 -30,16 -16,31 4,5 10,5 14,9 0,21 -14,44 -32,49 -8,2 -16,1 -20,-5 -8,-14 13,-70 18,-84l-26 2c-8,17 -32,82 -54,84 -8,0 -10,-6 -10,-13 0,-7 13,-44 16,-52 5,-16 3,-26 -17,-23 -11,2 -24,10 -30,16 -5,5 -6,14 3,6 3,-2 9,-9 14,-7z"/>
    <path class="fil2" d="M3913 1720c10,-1 12,-16 21,-13 8,9 -17,74 -21,87l27 0c12,-26 27,-65 49,-83 10,-8 26,-10 21,10 -3,13 -21,59 -19,69 5,21 55,-3 54,-19 -10,-1 -13,15 -25,12 -3,-7 11,-41 14,-50 5,-15 19,-40 -3,-44 -28,-6 -49,14 -64,35 -3,4 -11,16 -13,20 0,-13 20,-52 -1,-56 -18,-4 -45,21 -43,31z"/>
    <path class="fil2" d="M2966 1757c-1,11 -14,44 13,42 12,-1 35,-19 35,-30 -9,0 -18,19 -24,14 -8,-11 20,-72 23,-86 -29,-8 -48,-12 -77,-1 -20,8 -40,26 -48,45 -21,54 29,75 59,42 10,-11 16,-23 20,-27zm14 -48c-4,17 -24,57 -40,68 -9,6 -20,6 -24,-5 -6,-18 3,-46 11,-58 15,-21 30,-13 53,-6l0 0z"/>
    <path class="fil2" d="M4296 1717l0 -10c-4,-7 -2,-9 -10,-14 -5,-3 -12,-4 -19,-5 -39,-2 -80,23 -88,58 -13,52 45,62 83,44 8,-4 26,-14 24,-23 -7,0 -20,16 -42,16 -17,0 -33,-9 -35,-24 26,0 69,-7 82,-31 2,-4 3,-8 5,-12zm-88 37c0,-24 5,-48 30,-53 38,-7 29,32 16,43 -11,9 -29,11 -46,10l0 0z"/>
    <path class="fil2" d="M3872 1769c-7,-3 -16,15 -42,15 -17,0 -33,-9 -35,-24 30,-1 83,-9 87,-45 4,-39 -60,-31 -88,-9 -11,9 -23,20 -28,37 -7,22 0,38 14,47 34,23 97,-7 92,-22zm-78 -15c0,-17 3,-34 12,-44 6,-7 31,-16 41,-5 9,10 1,32 -8,39 -11,9 -28,10 -46,10l0 0z"/>
    <path class="fil2" d="M2592 1690c-33,4 -60,26 -70,50 -16,39 10,65 50,59 33,-5 58,-25 69,-50 18,-38 -10,-63 -49,-59zm-5 8c37,-8 33,19 25,45 -3,11 -7,20 -11,29 -5,10 -11,15 -23,17 -36,7 -34,-19 -26,-45 7,-23 13,-42 36,-46l0 0z"/>
    <path class="fil2" d="M2443 1693l-21 -1 -3 12 21 -3c-3,18 -23,72 -20,86 6,26 71,1 66,-17 -7,-1 -10,11 -24,12 -15,1 -14,-12 -12,-23 4,-19 12,-39 16,-58l29 2 4 -12 -30 2 18 -62c-34,0 -28,-4 -33,14l-13 47z"/>
    <path class="fil2" d="M3583 1692c-10,-1 -15,-3 -27,-3 -38,0 -67,30 -55,52 8,15 35,17 51,24 12,5 10,17 -2,21 -17,6 -47,-9 -55,-17 0,-5 1,-12 -1,-16 -6,1 -5,13 -9,27 -2,6 -9,23 -7,28 6,-1 8,-9 10,-15 11,2 35,17 68,-1 23,-13 33,-38 15,-50 -7,-5 -21,-9 -30,-11 -9,-2 -26,-6 -25,-16 1,-11 19,-12 30,-10 9,1 25,5 31,10 0,7 -2,10 1,14 5,1 7,-19 9,-25 2,-7 8,-22 8,-26 -7,1 -7,9 -11,15z"/>
    <path class="fil2" d="M2372 1692c-20,-3 -36,-7 -57,3 -17,8 -35,27 -25,46 7,14 36,17 52,24 12,6 9,17 -2,21 -18,7 -46,-9 -55,-17 0,-6 2,-11 -2,-16 -4,1 -3,2 -5,12 -1,5 -2,10 -3,14 -2,6 -9,22 -7,27 6,1 5,-6 11,-15 21,9 46,11 66,0 23,-13 34,-37 17,-50 -6,-5 -21,-9 -29,-11 -9,-3 -26,-6 -27,-15 -1,-12 18,-13 29,-12 10,1 25,5 32,10 0,5 -2,11 2,15 5,-2 6,-20 8,-25 2,-7 8,-20 8,-26 -5,0 -5,2 -7,6 -1,3 -3,6 -4,9z"/>
    <path class="fil2" d="M3196 1734c1,-2 1,0 1,-2 0,-1 0,-1 0,-2 -1,-3 -4,-11 0,-17 5,-7 14,-6 21,-3 16,6 24,10 42,13 -13,10 -27,23 -43,35 -7,5 -44,32 -38,37 5,5 11,-7 31,-3 10,2 21,7 32,7 26,0 43,-30 41,-36 -10,1 -6,17 -27,11 -14,-4 -20,-7 -37,-6 3,-4 32,-27 39,-32 7,-6 13,-10 20,-16 4,-4 18,-13 17,-19 -11,-2 -7,8 -36,-3 -22,-9 -46,-19 -65,4 -5,7 -11,31 0,33z"/>
    <path class="fil2" d="M3702 1723c-4,4 -6,6 -10,9 -4,3 -7,6 -11,9 -10,8 -65,48 -59,54 5,5 10,-7 31,-3 21,5 40,16 60,-5 3,-3 16,-18 13,-24 -9,0 -6,17 -27,11 -14,-4 -21,-7 -37,-6 2,-4 58,-47 69,-56 3,-3 8,-5 8,-11 -10,-1 -7,7 -29,-1 -10,-3 -17,-7 -27,-10 -29,-8 -54,9 -51,35 0,3 3,13 7,9 4,-4 -9,-20 7,-26 9,-3 22,3 29,6 4,2 8,3 13,5 2,1 5,1 7,2 3,1 6,1 8,2z"/>
    <path class="fil2" d="M3054 1720c8,0 10,-13 21,-13 5,9 -4,35 -7,45l-13 42 27 0c11,-36 16,-58 40,-84l1 1c1,1 1,1 1,2 1,3 2,7 7,9 20,9 37,-20 19,-31 -24,-16 -40,25 -49,35 1,-10 15,-45 -16,-37 -9,3 -35,21 -31,30z"/>
    <path class="fil2" d="M4089 1719l3 0c5,-1 9,-13 18,-13 7,12 -17,72 -20,88l27 0 25 -83c5,-22 -9,-28 -27,-20 -8,3 -29,19 -26,27z"/>
    <path class="fil2" d="M4139 1616c-23,6 -16,41 8,36 9,-2 16,-11 14,-22 -2,-8 -12,-16 -22,-14z"/>
   </g>
  </g>
  <path class="fil3" d="M5626 2491c-30,59 -65,124 -99,167l68 -118c10,-18 21,-37 31,-57l0 -265c-7,15 -14,29 -21,43 4,-14 12,-36 21,-58l0 -27c-33,86 -70,167 -110,245 -55,105 -113,198 -176,287 -37,52 -157,208 -210,256 -39,36 -75,81 -116,116 -42,35 -79,72 -124,107 -93,72 -172,130 -278,188 -151,82 -314,162 -481,217 -11,4 -31,10 -53,16l441 0c82,-42 163,-87 242,-135 107,-66 196,-137 285,-208l128 -117c41,-42 66,-64 104,-110l71 -82c44,-52 122,-157 159,-212 37,-55 79,-124 119,-196l0 -20c-22,40 -45,79 -68,118 -12,20 -35,60 -49,74l77 -131c13,-23 27,-47 40,-72l0 -21zm0 -2255c-8,-16 -16,-32 -24,-49 -28,-56 -63,-116 -102,-176l-57 0c22,32 47,69 57,96l-6 -6c-1,-1 -1,-1 -2,-2 -1,-1 -1,-1 -2,-2l-4 -4c0,0 -1,-1 -2,-2l97 187c16,34 30,66 44,99l0 -142zm0 188c-20,-49 -59,-141 -79,-164 4,15 54,125 79,186l0 -21zm-2988 3181c-144,-54 -321,-136 -391,-175 -48,-27 -122,-73 -169,-95 9,27 138,98 167,114 61,35 119,64 187,95 47,22 98,42 150,60l57 0zm-83 0c-48,-18 -95,-37 -140,-58 -104,-49 -199,-97 -295,-158 -30,-19 -66,-40 -92,-61 -112,-87 -225,-179 -324,-278 -41,-42 -87,-88 -126,-136 -45,-54 -95,-108 -138,-165 -3,-4 -7,-10 -9,-11 -9,-10 1,-4 -13,-10 9,33 46,69 60,97 -11,-9 -19,-22 -28,-34 -10,-13 -17,-22 -26,-35 -23,-33 -45,-66 -67,-99l-16 0c18,29 38,58 57,87 18,25 35,47 50,71 -12,-14 -94,-128 -120,-158l-5 0c19,63 182,272 232,324 78,81 128,132 211,207 97,88 305,231 412,292 82,46 167,88 253,126l24 0c-37,-16 -71,-33 -89,-41 -150,-75 -356,-186 -480,-296 -15,-13 -27,-24 -42,-37 -11,-9 -33,-28 -39,-37 16,10 24,19 38,31 13,10 25,20 38,30 91,71 135,101 236,166 64,41 287,164 355,177 -121,-61 -206,-95 -327,-172 -44,-28 -257,-169 -289,-208l0 0c18,11 31,22 47,35 170,127 353,238 550,324 22,10 44,19 66,27l34 0zm-168 0c-134,-63 -264,-142 -378,-219 -88,-59 -173,-122 -252,-191 -14,-12 -35,-32 -51,-40 6,41 274,239 317,267l182 114c7,13 24,19 35,26 25,15 51,30 78,43l69 0zm2670 -3593l73 0c14,19 27,37 41,56 90,131 169,267 232,415 15,34 83,205 85,231 -11,-73 -82,-234 -114,-305 -22,-48 -46,-95 -70,-140 -19,-34 -63,-103 -75,-133 43,39 150,255 178,320 139,327 210,689 183,1051 -3,39 -7,76 -11,114 -4,34 -13,75 -15,107 4,-10 4,-25 9,-34 -4,114 -59,288 -98,399 -11,31 -40,94 -45,120l6 -8c0,-1 1,-2 1,-2 2,-3 4,-8 6,-11 111,-248 170,-615 164,-877 -6,-273 -55,-537 -153,-789 -10,-25 -32,-73 -37,-96 20,23 67,155 82,197 24,68 45,143 63,216 104,442 65,903 -99,1322 -12,30 -32,72 -39,103l33 -69c28,-71 54,-141 77,-216 28,-93 62,-215 73,-311 2,33 -16,119 -24,156 -30,141 -78,284 -134,414 -85,197 -188,365 -307,516l-84 100c-88,95 -179,187 -283,264l-157 115c-172,127 -415,237 -628,287 -33,8 -45,0 -77,8 -232,58 -502,79 -747,59 -180,-14 -359,-50 -525,-118l-37 -21c-2,-2 1,-1 -6,-5 -5,-3 -179,-70 -266,-119 -45,-25 -205,-116 -218,-145 22,7 74,42 98,56 98,58 199,108 306,153 72,30 148,60 226,84 59,19 185,60 243,58 -17,-1 -34,-7 -51,-11 -39,-10 -35,-7 -15,-17 -109,-14 -268,-75 -370,-115 -187,-72 -381,-184 -539,-305 -24,-18 -92,-72 -115,-96 -36,-38 -172,-159 -186,-204 44,25 74,84 117,110 -9,-11 -19,-19 -29,-29l-132 -153c-17,-22 -32,-41 -46,-60l13 0c37,49 80,104 105,128 58,57 112,131 184,183 -20,-23 -112,-98 -114,-127l139 123c48,40 92,78 146,116 103,73 209,139 320,204 158,92 525,199 711,211 32,2 -1,-1 20,-5 19,-4 69,2 92,2 -28,-6 -80,-7 -113,-9 -104,-8 -209,-28 -308,-56 -65,-18 -324,-102 -344,-139 24,4 71,26 97,35 100,37 198,70 303,95 107,26 225,51 337,61 22,2 112,2 122,5 -41,-1 -183,-11 -209,-23 9,-7 24,-4 37,-3 256,17 567,-1 808,-73 51,-15 192,-60 226,-84l-28 5c12,-15 50,-28 67,-37 24,-11 45,-22 68,-34 189,-101 323,-196 487,-326 33,-26 72,-67 102,-99 9,-10 16,-16 24,-27 8,-10 16,-17 24,-27 45,-56 93,-109 135,-168 110,-155 205,-321 281,-528 89,-243 107,-420 130,-676 11,114 -15,274 -37,388 -7,34 -22,85 -25,113 21,-72 40,-142 52,-225 36,-250 28,-526 -28,-768 -52,-226 -126,-410 -233,-604 -22,-40 -96,-150 -105,-171 33,30 84,120 109,163 186,313 288,684 290,1055 1,87 -6,172 -15,255 -8,72 -34,178 -37,231 37,-94 55,-351 59,-459 14,68 -9,190 -11,261 32,-116 20,-382 6,-507 -49,-440 -197,-762 -449,-1105zm-2565 3593l0 0 0 0 0 0zm2791 -653l76 -100 -98 116c-8,10 -11,14 -21,24l-43 45c-29,29 -55,59 -86,87 -31,28 -59,52 -91,82 -15,13 -30,25 -46,39 -16,13 -31,26 -49,40 -98,73 -154,111 -256,176 -18,11 -39,22 -54,35 70,-25 297,-191 368,-249 8,-7 15,-12 24,-20l172 -154c8,-4 1,8 35,-27 8,-9 12,-14 21,-23 38,-35 13,-21 30,-45 6,-9 14,-17 20,-25l0 0zm-13 -14c-10,12 -26,33 -44,38 11,-24 42,-54 58,-79l-139 150c-98,97 -200,188 -314,268l-172 118c48,-17 280,-189 332,-234l139 -122c-17,26 -132,128 -167,156 -21,17 -39,32 -60,49 -57,45 -129,95 -192,135 -18,11 -51,34 -66,41 105,-44 300,-200 393,-282 82,-72 161,-153 231,-236l0 0zm-27 -53l35 -46 -154 165c-26,29 -52,48 -80,79l-75 68c-5,4 -7,5 -12,9 -9,8 -10,10 -20,17l-114 90c-57,42 -133,92 -194,129 -16,10 -38,21 -51,31 17,-7 35,-18 51,-27 17,-9 35,-20 52,-30 32,-19 70,-40 100,-60 83,-57 116,-91 182,-142l84 -76c13,-14 29,-25 43,-39l118 -124c8,-9 8,-13 18,-22 8,-8 11,-12 19,-22l0 0zm40 -22c-1,1 -1,1 -2,2 -3,4 -1,2 -5,6l-32 36c-4,5 -6,9 -11,13l14 -24c43,-47 99,-130 136,-173l-9 19c13,-4 28,-26 36,-36l-67 95c-17,22 -101,134 -121,144 6,-11 10,-17 17,-24l50 -64 -7 6 0 0zm-1108 541c-8,1 -12,3 -21,5 -9,3 -15,5 -24,0l87 -40 -170 61c-102,37 -274,71 -383,86l-211 25c142,1 285,-25 423,-54 40,-8 93,-27 129,-31 -47,30 -305,76 -384,84 135,4 425,-85 553,-137l0 0zm146 -95c-11,2 -57,26 -73,33 -171,80 -402,142 -587,168 -168,24 -441,12 -613,-10 -24,-3 -173,-28 -180,-25 10,8 40,14 55,18 11,3 19,5 30,7l30 9c-108,-7 -347,-88 -442,-128 -118,-50 -179,-76 -282,-143 -26,-16 -63,-39 -83,-57l77 46c157,92 427,218 598,241 -11,2 -161,-48 -186,-58 -157,-59 -360,-150 -495,-249 15,7 33,20 48,29 246,145 562,269 843,307 282,38 558,26 834,-44 41,-10 79,-22 119,-35 25,-8 95,-37 110,-40l-90 27 214 -81 -47 27c36,2 90,-34 120,-43l0 0zm741 -482l-20 16c-6,6 -11,10 -18,16 8,-18 20,-29 30,-45l-231 227 -119 95c-85,64 -214,152 -307,200 -40,20 -75,37 -113,55 16,-5 41,-18 56,-25 143,-69 243,-127 372,-223 50,-37 101,-82 142,-113l170 -156c15,-14 30,-30 40,-48l0 0zm223 -384c-6,7 -94,150 -124,189 -54,72 -100,128 -158,196 -29,33 -107,109 -138,138 -15,14 -26,23 -41,37 -13,12 -29,24 -43,35l-40 38c-14,13 -30,25 -44,37 47,-26 130,-106 174,-145 75,-66 204,-206 267,-291 10,-14 25,-34 36,-46 15,-17 -6,14 14,-9 41,-49 34,-62 41,-75 15,-31 46,-72 57,-104l0 0zm-58 69c-9,10 -19,30 -34,37 10,-29 34,-56 44,-86l-109 160c-19,27 -39,52 -59,77 -11,14 -20,24 -31,37 -6,7 -10,11 -16,18l-79 91c-7,6 -12,9 -18,16l-50 52c-38,33 -42,40 -70,66 -12,11 -23,21 -35,33 -10,9 -27,22 -36,32l171 -149 176 -195c7,-9 40,-48 42,-53 -40,51 -51,75 -104,134l-22 25c-9,9 -12,18 -22,26l-225 214c28,-17 112,-86 136,-116 18,-22 40,-38 64,-62 11,-12 20,-25 30,-35l89 -101c32,-37 139,-182 158,-223l0 0zm-10 -95c-30,37 -27,32 -54,75 -35,58 -114,169 -161,220l-37 45c-9,10 -9,8 -16,18 -8,10 -6,8 -17,17l-203 198c9,-5 14,-8 20,-14 68,-59 77,-56 155,-141 26,-28 56,-56 80,-86 6,-8 8,-11 15,-19 21,-23 39,-48 59,-74 37,-47 77,-104 109,-156 15,-24 39,-58 49,-83l0 0zm87 -104c-18,69 -177,299 -224,361 -62,82 -206,247 -284,297l32 -32c12,-11 21,-16 32,-29 37,-45 55,-50 94,-96 28,-32 53,-57 86,-98 38,-48 73,-91 108,-144 17,-26 33,-50 49,-76 12,-20 35,-56 43,-78l-89 137c-9,13 -21,34 -33,43l94 -146c14,-24 30,-51 43,-76 12,-25 27,-53 41,-74l-6 22c9,-4 3,-2 7,-5 2,-1 4,-4 5,-4 0,1 2,-1 3,-2l0 0zm263 -839c2,94 -18,214 -35,305 -11,58 -33,146 -51,204 -6,19 -15,44 -19,62 75,-202 122,-438 117,-659 -1,15 0,18 -8,27l-13 -218c-1,31 1,66 2,98 1,33 1,69 0,102 -2,63 -5,124 -13,188 -7,60 -16,119 -28,177 -10,47 -32,122 -35,166 18,-39 41,-165 50,-218l30 -235 0 0zm-27 -85l-13 161c-3,26 -6,53 -9,79 -4,24 -11,56 -13,78 -1,-13 6,-76 8,-95 17,-127 13,-196 16,-322 1,1 1,4 1,3 3,-7 1,4 6,16 7,-13 5,-39 6,-56 20,33 -5,340 -8,366 -10,79 -35,250 -68,316 4,-33 21,-85 29,-124 9,-42 17,-88 24,-132 13,-94 24,-194 21,-289l0 0z"/>
  <g id="_243788640">
   <path class="fil3" d="M16 1104c28,-54 60,-111 91,-149l-68 118c-7,13 -15,26 -22,40l0 263c4,-8 8,-16 12,-24 -2,9 -7,22 -12,36l0 26c31,-77 65,-151 102,-222 55,-105 113,-198 176,-287 37,-52 157,-208 210,-256 39,-36 75,-81 116,-116 42,-35 79,-72 124,-107 93,-72 172,-130 278,-188 150,-82 314,-162 481,-217 9,-3 22,-7 38,-12l-434 0c-79,40 -157,84 -233,131 -107,66 -196,137 -285,208l-128 117c-41,42 -66,64 -104,110l-71 82c-44,52 -122,157 -159,212 -34,51 -73,114 -111,181l0 20c19,-34 39,-68 59,-102 12,-20 35,-60 49,-74l-77 131c-10,18 -21,37 -32,56l0 20zm0 2290c5,10 10,20 15,31 29,57 65,119 105,181l58 0c-23,-33 -50,-72 -60,-101l6 6c1,1 1,1 2,2 1,1 1,1 2,2l4 4c0,0 1,1 2,2l-97 -187c-12,-27 -24,-52 -35,-78l0 139zm0 -184c21,51 53,122 71,143 -3,-13 -44,-103 -71,-165l0 22zm2992 -3198c141,54 310,132 379,171 48,27 122,73 169,95 -9,-27 -138,-98 -167,-114 -61,-35 -119,-64 -187,-95 -43,-20 -90,-39 -137,-56l-58 0zm83 0c44,16 86,34 128,54 104,49 199,97 295,158 30,19 66,40 92,61 112,87 225,179 324,278 41,42 87,88 126,136 45,54 95,108 138,165 3,4 7,10 9,11 9,10 -1,4 13,10 -9,-33 -46,-69 -60,-97 11,9 19,22 28,34 10,13 17,22 26,35 27,38 52,77 78,116l15 0c-22,-35 -44,-70 -68,-104 -18,-25 -35,-47 -50,-71 13,16 112,154 126,164 -9,-53 -182,-276 -234,-330 -78,-81 -128,-132 -211,-207 -97,-88 -305,-231 -412,-292 -79,-45 -160,-85 -243,-122l-23 0c33,15 63,29 79,37 150,75 356,186 480,296 15,13 27,24 42,37 11,9 33,28 39,37 -16,-10 -24,-19 -38,-31 -13,-10 -25,-20 -38,-30 -91,-71 -135,-101 -236,-166 -64,-41 -287,-164 -355,-177 121,61 206,95 327,172 44,28 257,169 289,208l0 0c-18,-11 -31,-22 -47,-35 -170,-127 -353,-238 -550,-324 -18,-8 -36,-15 -54,-23l-33 0zm166 0c130,62 257,139 369,215 88,59 173,122 252,191 14,12 35,32 51,40 -6,-41 -274,-239 -317,-267l-182 -114c-7,-13 -24,-19 -35,-26 -22,-13 -45,-26 -69,-38l-68 0zm-2906 649l-76 100 98 -116c8,-10 11,-14 21,-24l43 -45c29,-29 55,-59 86,-87 31,-28 59,-52 91,-82 15,-13 30,-25 46,-39 16,-13 31,-26 49,-40 98,-73 154,-111 256,-176 18,-11 39,-22 54,-35 -70,25 -297,191 -368,249 -8,7 -15,12 -24,20l-172 154c-8,4 -1,-8 -35,27 -8,9 -12,14 -21,23 -38,35 -13,21 -30,45 -6,9 -14,17 -20,25l0 0zm13 14c10,-12 26,-33 44,-38 -11,24 -42,54 -58,79l139 -150c98,-97 200,-188 314,-268l172 -118c-48,17 -280,189 -332,234l-139 122c17,-26 132,-128 167,-156 21,-17 39,-32 60,-49 57,-45 129,-95 192,-135 18,-11 51,-34 66,-41 -105,44 -300,200 -393,282 -82,72 -161,153 -231,236l0 0zm27 53l-35 46 154 -165c26,-29 52,-48 80,-79l75 -68c5,-4 7,-5 12,-9 9,-8 10,-10 20,-17l114 -90c57,-42 133,-92 194,-129 16,-10 38,-21 51,-31 -17,7 -35,19 -51,27 -17,9 -35,20 -52,30 -32,19 -70,40 -100,60 -83,57 -116,91 -182,142l-84 76c-13,14 -29,25 -43,39l-118 124c-8,9 -8,13 -18,22 -8,8 -11,12 -19,22l0 0zm-40 22c1,-1 1,-1 2,-2 3,-4 1,-2 5,-6l32 -36c4,-5 6,-9 11,-13l-14 24c-43,47 -99,130 -136,173l9 -19c-13,4 -28,26 -36,36l67 -95c17,-22 101,-134 121,-144 -6,11 -10,17 -17,24l-50 64 7 -6 0 0z"/>
   <path class="fil3" d="M31 1939c11,-96 45,-218 73,-311 23,-74 49,-145 77,-216l33 -69c-7,30 -28,73 -40,103 -164,419 -203,880 -99,1322 17,73 38,148 63,216 15,42 62,174 82,197 -5,-23 -27,-71 -37,-96 -99,-251 -147,-515 -153,-789 -6,-262 53,-629 164,-877 2,-4 4,-9 6,-11 0,-1 1,-2 1,-2l6 -8c-5,26 -34,89 -45,120 -40,110 -94,284 -98,399 5,-9 5,-25 9,-34 -1,32 -10,72 -15,107 -5,38 -9,75 -11,114 -27,362 44,724 183,1051 28,65 134,281 178,320 -12,-30 -57,-99 -75,-133 -25,-45 -49,-93 -70,-140 -32,-70 -104,-232 -114,-305 2,26 70,197 85,231 63,148 141,284 232,415 14,21 29,41 44,61l73 0c-1,-2 -2,-3 -3,-4 -252,-343 -400,-665 -449,-1105 -14,-124 -26,-391 6,-507 -2,72 -25,193 -11,261 4,-108 23,-365 59,-459 -3,53 -29,160 -37,231 -9,83 -15,169 -15,255 2,371 104,742 290,1055 25,42 76,133 109,163 -9,-20 -83,-131 -105,-171 -107,-194 -181,-378 -233,-604 -56,-242 -63,-518 -28,-768 12,-83 31,-153 52,-225 -2,28 -18,79 -25,113 -23,114 -48,274 -37,388 23,-256 41,-433 130,-676 76,-207 171,-373 281,-528 42,-59 90,-112 135,-168 8,-10 16,-17 24,-27 9,-11 15,-17 24,-27 30,-32 69,-72 102,-99 164,-130 298,-226 487,-326 23,-12 44,-23 68,-34 17,-8 55,-21 67,-37l-28 5c34,-23 175,-68 226,-84 242,-72 553,-90 808,-73 13,1 28,4 37,-3 -26,-13 -168,-23 -209,-23 10,3 100,3 122,5 112,10 230,35 337,61 105,26 203,58 303,95 26,10 73,32 97,35 -21,-37 -279,-121 -344,-139 -100,-28 -204,-47 -308,-56 -33,-3 -85,-3 -113,-9 23,0 73,6 92,2 21,-4 -12,-7 20,-5 186,12 553,119 711,211 111,65 217,131 320,204 54,38 98,76 146,116l139 123c-2,-30 -94,-104 -114,-127 71,52 125,126 184,183 27,26 78,92 117,145l13 0c-17,-23 -36,-48 -59,-77l-132 -153c-10,-10 -20,-18 -29,-29 43,26 73,85 117,110 -14,-45 -150,-167 -186,-204 -23,-25 -91,-78 -115,-96 -157,-121 -352,-233 -539,-305 -102,-39 -262,-100 -370,-115 20,-10 24,-7 -15,-17 -17,-4 -33,-10 -51,-11 58,-2 184,39 243,58 77,24 153,54 226,84 107,45 208,96 306,153 24,14 76,49 98,56 -13,-29 -173,-119 -218,-145 -87,-49 -261,-116 -266,-119 -6,-4 -4,-3 -6,-5l-37 -21c-166,-68 -344,-103 -525,-118 -245,-20 -515,1 -747,59 -32,8 -44,0 -77,8 -213,51 -456,160 -628,287l-157 115c-104,78 -196,170 -283,264l-84 100c-119,151 -223,319 -307,516 -56,130 -104,273 -134,414 -8,37 -26,123 -24,156zm1428 -1730c8,-1 12,-3 21,-5 9,-3 15,-5 24,0l-87 40 170 -61c102,-37 274,-71 383,-86l211 -25c-142,-1 -285,25 -423,54 -40,8 -93,27 -129,31 47,-30 305,-76 384,-84 -135,-4 -425,85 -553,137l0 0zm-146 95c11,-2 57,-26 73,-33 171,-80 402,-142 587,-168 168,-24 441,-12 613,10 24,3 173,28 180,25 -10,-8 -40,-15 -55,-18 -11,-3 -19,-5 -30,-7l-30 -9c108,7 347,88 442,128 118,50 179,76 282,143 26,16 63,39 83,57l-77 -46c-157,-92 -427,-218 -598,-241 11,-2 161,48 186,58 157,59 360,150 495,249 -15,-7 -33,-20 -48,-29 -246,-145 -562,-269 -843,-307 -282,-38 -558,-26 -834,44 -41,10 -79,22 -119,35 -25,8 -95,37 -110,40l90 -27 -214 81 47 -27c-36,-2 -90,34 -120,43l0 0zm-741 482l20 -16c6,-6 11,-10 18,-16 -8,18 -20,29 -30,45l231 -227 119 -95c85,-64 214,-152 307,-200 40,-20 75,-37 113,-55 -16,5 -41,18 -56,25 -143,69 -243,127 -372,223 -50,37 -101,82 -142,113l-170 156c-15,14 -30,30 -40,48l0 0zm-223 384c6,-7 94,-150 124,-189 54,-72 100,-128 158,-196 29,-33 107,-109 138,-138 15,-14 26,-23 41,-37 13,-12 29,-24 43,-35l40 -38c14,-13 30,-25 44,-37 -47,26 -130,106 -174,145 -75,66 -204,206 -267,291 -10,14 -25,34 -36,46 -15,17 6,-14 -14,9 -41,49 -34,62 -41,75 -15,31 -46,72 -57,104l0 0zm58 -69c9,-10 19,-30 34,-37 -10,29 -34,56 -45,86l109 -160c19,-27 39,-52 59,-77 11,-14 20,-24 31,-37 6,-7 10,-11 16,-18l79 -91c7,-6 12,-9 18,-16l50 -52c38,-33 42,-40 70,-66 12,-11 23,-21 35,-33 10,-9 27,-22 36,-32l-171 149 -176 195c-7,9 -40,48 -42,53 40,-51 51,-75 104,-134l22 -25c9,-9 12,-18 22,-26l225 -214c-28,17 -112,86 -136,116 -18,22 -40,38 -64,62 -11,12 -20,25 -30,35l-89 101c-32,37 -139,182 -158,223l0 0zm10 95c30,-37 27,-32 54,-75 35,-58 114,-169 161,-220l37 -45c9,-10 9,-8 16,-18 8,-10 6,-8 17,-17l203 -198c-9,5 -14,8 -20,14 -68,59 -77,56 -155,141 -26,28 -56,56 -80,86 -6,8 -8,11 -15,19 -21,23 -39,48 -59,74 -37,47 -77,104 -109,156 -15,24 -39,58 -49,83l0 0zm-87 104c18,-69 177,-299 224,-361 62,-82 206,-247 284,-297l-32 32c-12,11 -21,16 -32,29 -37,45 -55,50 -94,96 -28,32 -53,57 -86,98 -38,48 -73,91 -108,144 -17,26 -33,50 -49,76 -12,20 -35,56 -43,78l89 -137c9,-13 21,-34 33,-43l-94 146c-14,24 -30,51 -43,76 -12,25 -27,53 -41,74l6 -22c-9,4 -3,2 -7,5 -2,1 -4,4 -5,4 0,-1 -2,1 -3,2l0 0zm-263 839c-2,-94 18,-214 35,-305 11,-58 33,-146 51,-204 6,-19 15,-44 19,-62 -75,202 -122,438 -117,659 1,-15 0,-18 8,-27l13 217c1,-31 -1,-66 -2,-98 -1,-33 -1,-69 0,-102 2,-63 5,-124 13,-188 7,-60 16,-119 28,-177 10,-47 32,-122 35,-166 -18,39 -41,165 -50,218l-30 235 0 0zm27 85l13 -161c3,-26 6,-53 9,-79 4,-24 11,-56 13,-78 1,13 -6,76 -8,95 -17,127 -13,196 -16,322 -1,-1 -1,-4 -1,-3 -3,7 -1,-4 -6,-16 -7,13 -5,39 -6,56 -20,-33 5,-340 8,-366 11,-79 35,-250 68,-316 -4,33 -21,85 -29,124 -9,42 -17,88 -24,132 -13,94 -24,194 -21,289l0 0z"/>
  </g>
 </g>
</svg>
