<?xml version="1.0" encoding="UTF-8"?>
<!DOCTYPE svg PUBLIC "-//W3C//DTD SVG 1.1//EN" "http://www.w3.org/Graphics/SVG/1.1/DTD/svg11.dtd">
<!-- Creator: CorelDRAW X6 -->
<svg xmlns="http://www.w3.org/2000/svg" xml:space="preserve" width="56.2186mm" height="36.068mm" version="1.1" style="shape-rendering:geometricPrecision; text-rendering:geometricPrecision; image-rendering:optimizeQuality; fill-rule:evenodd; clip-rule:evenodd"
viewBox="0 0 5622 3607"
 xmlns:xlink="http://www.w3.org/1999/xlink">
 <defs>
  <style type="text/css">
   <![CDATA[
    .fil1 {fill:#188451}
    .fil2 {fill:#31325D}
    .fil0 {fill:#FEFEFE}
   ]]>
  </style>
 </defs>
 <g id="Warstwa_x0020_1">
  <metadata id="CorelCorpID_0Corel-Layer"/>
  <polygon class="fil0" points="10,4 5631,4 5631,3605 10,3605 "/>
  <path class="fil0" d="M4603 4l37 0c15,11 30,23 44,35 124,101 237,210 339,335 24,29 137,174 146,199 -31,-67 -145,-202 -195,-261 -34,-40 -70,-79 -107,-115 -28,-28 -90,-82 -110,-107 53,26 215,203 260,258 225,276 395,605 469,961 8,38 15,75 21,113 5,34 8,76 16,107 1,-10 -3,-25 0,-36 28,111 24,294 17,411 -2,32 -12,101 -10,128l4 -10c0,-1 0,-2 1,-3 1,-3 2,-9 2,-13 37,-270 -8,-639 -87,-889 -82,-262 -203,-502 -368,-716 -16,-21 -51,-61 -62,-82 25,17 108,131 134,167 43,59 84,125 121,191 224,396 315,851 274,1300 -3,32 -11,79 -9,110l12 -75c7,-76 13,-151 14,-229 1,-97 0,-224 -17,-320 11,31 18,120 20,157 10,144 4,295 -13,435 -26,213 -79,404 -152,582l-53 119c-58,116 -120,230 -199,334l-119 155c-98,128 -236,257 -380,359l-103 0c42,-29 79,-56 107,-78l0 0c-7,4 -11,6 -18,11 -8,5 -13,9 -23,7l73 -63 -147 106c-7,5 -15,11 -23,16l-21 0c77,-50 151,-104 212,-158 13,-11 51,-47 61,-52l0 0c-27,17 -68,66 -104,75l37 -39 -183 138 79 -51c-13,8 -73,54 -95,69 -9,6 -17,12 -26,17l-93 0c21,-12 42,-25 61,-37 45,-29 168,-112 194,-144l-26 12c7,-18 40,-41 54,-54 20,-17 37,-34 56,-52 153,-149 256,-279 377,-450 25,-35 50,-85 71,-123 6,-12 11,-20 16,-33 5,-12 11,-21 16,-32 28,-66 59,-130 83,-199 62,-180 108,-366 123,-587 18,-259 -14,-434 -64,-687 42,106 62,268 72,384 3,34 2,88 8,116 0,-76 -1,-147 -13,-231 -35,-250 -120,-514 -241,-731 -113,-203 -236,-360 -393,-517 -32,-32 -134,-118 -148,-135 40,19 115,92 151,126 267,250 468,578 573,934 25,83 43,167 57,250 13,71 17,181 29,233 9,-100 -45,-353 -71,-458 32,62 44,185 62,255 -2,-120 -88,-374 -136,-489 -170,-410 -402,-678 -741,-938l44 -13zm419 0l83 0c10,10 19,20 28,30 13,14 25,27 37,40l40 136c-23,-28 -46,-55 -70,-83l-117 -123zm609 2377l0 172c-1,1 -2,2 -4,3l3 -21c-24,52 -54,148 -82,204l-7 27c3,-6 4,-10 6,-16l21 -43c2,-5 1,-3 3,-7 0,-1 1,-2 1,-2l0 0 5 -7 -31 76c-5,9 -7,15 -10,28 17,-15 67,-147 77,-172l17 -50 0 122 -49 111c-5,12 -6,17 -13,29l-29 55c-20,36 -37,72 -59,108 -22,35 -42,67 -65,104 -10,17 -22,33 -34,50 -11,17 -22,33 -36,52 -74,97 -117,150 -197,241 -14,16 -31,32 -42,49 61,-44 233,-267 284,-342 6,-9 11,-16 18,-26l122 -196c7,-6 3,8 26,-36 6,-11 7,-17 14,-28 27,-44 6,-24 16,-51 4,-10 9,-20 12,-29l0 0 33 -86 0 131 -16 35c-24,55 -41,83 -70,135l-90 149c-66,94 -131,187 -216,280 -56,61 -113,121 -173,177l-249 0c89,-73 173,-152 252,-230 86,-85 146,-163 215,-258 34,-47 59,-93 90,-138 30,-45 51,-98 79,-143 38,-61 110,-244 131,-305 17,-49 33,-99 47,-150zm-3505 1224l-16 0 -60 -39c-23,-16 -43,-31 -61,-45l13 -4c43,33 93,68 125,87zm-376 0l-20 0c-2,-2 -5,-4 -7,-7l15 -4c4,4 8,7 13,11zm-34 0l-8 0c0,-1 -1,-1 -1,-2l5 -1c1,1 3,2 5,3zm3506 -3350c-33,-42 -97,-119 -122,-136 8,13 87,105 128,157l-6 -21zm359 2518c-7,14 -16,39 -32,48 3,-26 26,-64 34,-93l-92 183c-68,121 -140,237 -227,345l-132 162c42,-30 217,-260 254,-318l100 -157c-9,30 -92,161 -117,197 -15,22 -29,41 -45,64 -42,59 -98,127 -147,183 -14,16 -40,47 -52,57 89,-71 233,-276 299,-381 59,-93 112,-192 157,-292l0 0zm-41 -43l21 -54 -103 202c-17,36 -37,61 -55,99l-54 86c-3,5 -6,7 -9,12 -7,10 -7,12 -15,22l-85 118c-43,56 -103,125 -151,178 -13,14 -31,31 -40,44 15,-11 28,-28 42,-41 14,-14 28,-29 41,-43 26,-27 56,-58 79,-86 64,-78 86,-120 135,-187l59 -97c9,-17 20,-32 30,-49l79 -152c5,-11 5,-15 11,-27 6,-10 7,-15 13,-26l0 0zm-191 -5l-15 21c-4,8 -7,12 -13,21 2,-19 11,-34 16,-51l-159 283 -88 125c-64,85 -164,206 -240,278 -32,31 -62,56 -93,85 14,-9 35,-28 47,-39 118,-106 198,-190 295,-319 38,-50 74,-107 105,-149l120 -198c10,-18 20,-37 25,-57l0 0zm108 -432c-3,8 -49,170 -66,217 -32,85 -61,152 -98,232 -18,40 -73,135 -94,171 -11,18 -19,30 -29,47 -9,15 -21,31 -31,46l-28 48c-10,17 -22,32 -32,48 38,-38 96,-138 127,-188 53,-84 139,-255 176,-354 6,-16 14,-40 21,-54 10,-21 -1,15 11,-13 26,-59 16,-69 18,-84 5,-34 24,-83 25,-116l0 0zm-37 82c-6,13 -10,35 -22,45 1,-31 17,-63 19,-95l-60 185c-11,31 -23,61 -35,91 -7,16 -13,28 -19,44 -4,9 -7,13 -11,22l-51 110c-5,8 -9,12 -13,20l-33 64c-27,42 -29,50 -49,83 -8,14 -16,26 -25,41 -7,12 -20,29 -26,40l123 -191 115 -237c5,-10 25,-57 26,-63 -25,61 -28,86 -62,158l-15 31c-6,11 -7,20 -13,31l-157 269c22,-24 84,-114 99,-149 11,-27 28,-47 44,-78 8,-14 12,-30 19,-42l58 -122c20,-44 83,-214 90,-258l0 0zm-36 -89c-18,44 -17,38 -31,87 -18,65 -63,194 -93,257l-23 53c-6,12 -6,10 -11,22 -4,12 -4,10 -11,21l-141 247c7,-8 11,-11 16,-19 49,-76 58,-75 110,-179 17,-34 38,-69 53,-105 4,-9 5,-13 9,-22 13,-28 24,-57 36,-87 23,-56 45,-122 62,-181 8,-28 21,-66 24,-94l0 0zm55 -125c2,71 -87,337 -115,410 -37,96 -130,295 -190,365l22 -40c9,-14 16,-21 23,-37 23,-53 39,-63 64,-119 18,-39 35,-69 55,-118 23,-56 45,-108 64,-168 9,-29 18,-57 26,-87 6,-23 18,-64 20,-87l-48 157c-5,15 -11,38 -20,51l50 -166c7,-27 15,-57 20,-85 5,-27 11,-59 19,-83l1 22c7,-7 2,-2 5,-7 1,-2 3,-6 4,-5 1,1 1,-2 2,-3l0 0zm19 -881c28,90 42,211 52,304 6,59 9,150 8,211 0,20 -3,47 0,65 16,-215 -5,-455 -72,-667 3,15 5,17 0,28l-73 -206c7,30 20,63 30,94 10,32 20,66 28,98 15,62 29,121 40,184 10,60 18,119 23,178 4,48 4,127 13,169 7,-43 -7,-170 -12,-224l-36 -234 0 0zm-50 -74l33 158c4,26 9,52 13,78 3,25 5,57 10,78 -5,-12 -16,-75 -19,-94 -19,-127 -42,-193 -74,-314 1,1 2,3 2,2 1,-7 2,3 10,14 3,-14 -6,-39 -10,-56 28,26 90,328 94,354 12,79 36,250 22,323 -6,-33 -4,-88 -7,-127 -3,-43 -8,-90 -14,-134 -13,-94 -31,-193 -60,-284l0 0z"/>
  <g id="_644918032">
   <g>
    <path class="fil1" d="M751 2254l38 61c4,3 29,40 35,48 24,32 85,102 112,120 -7,-8 -23,-23 -32,-32 -148,-152 -241,-353 -259,-562 -2,-27 -5,-59 -2,-83l1 50c1,47 10,109 21,154 1,6 5,21 7,25 3,6 -3,-6 2,2l5 20c38,138 111,266 208,370 39,42 117,113 166,138 -13,-12 -33,-24 -48,-36 -34,-26 -121,-103 -142,-136 79,86 124,128 225,190 52,32 125,64 183,82l64 18c33,9 93,19 130,22 8,1 24,2 36,3l3 0c3,0 5,0 7,-1l-68 -7c-23,-3 -44,-7 -66,-11 -6,-1 -11,-3 -16,-4l-49 -12c-16,-5 -52,-14 -65,-22 5,0 15,4 21,6l21 6c37,12 89,22 128,29 20,4 66,9 87,9 97,4 176,-2 276,-29 33,-9 65,-19 97,-32 17,-7 34,-14 50,-22 9,-4 46,-25 51,-26l42 -26c-6,0 -41,22 -50,26 -77,40 -160,71 -244,87 -111,21 -250,23 -357,-2 -15,-3 -28,-5 -43,-9 -10,-3 -33,-10 -42,-14 2,0 80,22 101,25 38,5 63,10 104,13 18,1 55,4 72,1 -18,-2 -37,-1 -55,-2 -28,-2 -55,-4 -82,-9l-40 -7c-5,-1 -9,-1 -14,-2 -23,-4 -58,-15 -80,-21 -18,-5 -34,-11 -52,-18 -16,-6 -34,-13 -51,-21 -14,-7 -39,-16 -51,-26l3 1c0,0 1,0 1,0 0,0 1,0 1,0l2 1c0,0 1,0 1,0l-65 -39c-22,-15 -42,-29 -64,-45 -119,-89 -215,-219 -274,-357 -6,-14 -11,-28 -16,-42l-13 -41c12,25 16,58 32,82 -2,-7 -7,-19 -10,-27l-22 -69c-1,-2 -1,-4 -2,-7 -1,-5 -2,-2 -1,-8l24 75c59,159 165,296 299,398 13,10 49,35 61,39 -5,-5 -54,-37 -68,-49 -74,-59 -137,-123 -192,-204 -62,-91 -129,-241 -137,-354 3,10 6,34 9,47 4,16 7,31 12,48 8,28 21,71 34,97 -14,-45 -28,-83 -39,-130 -10,-43 -16,-86 -19,-127 -3,-43 -3,-82 0,-122 2,-23 9,-94 16,-119 5,-19 8,-39 14,-58 6,-19 11,-37 18,-57 15,-40 28,-73 50,-111 31,-54 66,-109 107,-158 9,-10 38,-42 43,-51 -6,2 -7,5 -13,8 11,-10 24,-24 36,-36 73,-68 153,-115 244,-156 17,-7 34,-14 51,-21 6,-2 41,-14 46,-17l2 -2c0,0 0,-1 1,-1 -5,0 -10,2 -16,3 37,-17 173,-35 217,-37 20,-1 52,-1 70,-3 -8,-7 -61,-4 -73,-4 -26,1 -49,3 -76,6 -25,3 -52,8 -78,14 -13,3 -27,7 -40,11 -7,2 -33,13 -41,13 7,-3 16,-5 22,-9 10,-5 -9,-1 16,-8 41,-11 84,-21 125,-25 41,-5 80,-8 121,-7 13,0 28,0 40,1 51,6 103,12 153,25 21,5 43,11 65,18 24,8 50,16 74,25 2,1 4,2 5,2 5,1 1,1 6,1 -9,-9 -27,-13 -37,-19 5,1 10,3 15,5 5,2 10,4 15,6 50,22 98,46 144,76 18,12 39,25 56,40 37,32 72,63 106,101 18,19 34,39 51,60 8,10 45,63 50,66 2,-16 -78,-113 -93,-130 -33,-36 -69,-69 -106,-96 -19,-13 -35,-27 -54,-40 -46,-30 -93,-57 -143,-78 -10,-4 -20,-8 -29,-12 7,2 64,26 70,27 -13,-15 -109,-51 -135,-58 -39,-10 -64,-17 -104,-24 -47,-9 -138,-14 -183,-12 -51,2 -102,8 -152,16l12 -4c-3,-2 0,-1 -3,-1 -7,-1 -17,2 -24,3 74,-19 162,-21 238,-18 38,2 76,5 114,11 7,1 17,3 23,3 -9,-11 -130,-22 -148,-22l-78 -1c-5,-3 -11,-1 -16,-1 -20,0 -40,2 -60,5 -100,14 -157,32 -249,72 -15,6 -29,13 -44,21 -10,5 -37,21 -45,24l-54 33 -45 32c-5,-1 -11,5 -14,8 -111,82 -188,192 -249,312 -21,41 -34,79 -48,118l-17 60c-5,21 -8,32 -11,54l-6 39c-4,24 -8,72 -9,96 -2,56 1,139 13,198 3,15 10,57 17,69 -4,-21 -9,-44 -13,-65 -10,-54 -13,-107 -14,-161 0,-9 0,-25 1,-32l1 55c1,52 8,120 20,171 17,68 31,115 60,180 5,11 30,57 31,64zm172 -1083c10,-8 26,-25 38,-35 26,-22 114,-93 137,-97 -24,16 -47,29 -71,46 -13,9 -53,39 -59,48 14,-10 29,-23 44,-33 27,-20 127,-85 146,-87 -46,29 -74,40 -125,76 -28,20 -55,41 -80,64 -7,7 -16,16 -24,21 1,-3 6,-8 6,-10 0,-1 0,-1 0,-1l-12 10 0 0zm746 -234c-8,0 -14,-1 -21,-2 -76,-7 -154,-7 -231,4 -15,2 -29,5 -44,7 -12,2 -33,8 -43,9 14,-6 57,-13 71,-18 -8,-4 -30,4 -40,3 15,-6 69,-13 86,-14 61,-6 145,-10 204,0 7,1 13,2 20,3 5,1 16,2 19,4 -7,0 -11,-2 -18,-2 -6,-1 -11,-1 -17,-2 -41,-5 -61,-6 -104,-6 -28,-1 -120,4 -143,13 49,-4 81,-10 133,-9 19,0 111,3 129,9l0 0zm-1006 732l-4 45 8 -54c1,-5 1,-6 2,-11l5 -22c3,-14 6,-29 10,-43 4,-14 8,-27 13,-43 2,-7 5,-14 7,-21 2,-7 5,-14 8,-21 16,-41 26,-63 46,-103 3,-7 8,-14 10,-21 -17,21 -56,115 -66,146 -1,4 -2,7 -4,11l-24 80c-2,3 -2,-2 -6,15 -1,4 -1,7 -2,11 -5,18 0,9 -1,19 0,4 -1,8 -1,11l0 0zm7 2c1,-6 2,-15 6,-20 1,9 -3,25 -3,35l14 -73c12,-49 26,-96 46,-142l31 -69c-12,14 -51,111 -58,135l-20 64c0,-11 17,-65 22,-80 3,-9 6,-17 9,-26 9,-25 22,-54 34,-78 3,-7 9,-20 13,-25 -24,33 -55,119 -68,161 -12,38 -21,78 -27,117l0 0zm19 11c1,-5 1,-6 2,-10 1,-5 1,-6 1,-10l13 -61c2,-7 4,-13 6,-20l11 -39c11,-28 14,-45 29,-78 5,-12 13,-25 19,-37 3,-6 7,-13 10,-19 3,-6 7,-13 11,-18 -2,6 -7,13 -10,19 -12,23 -26,53 -36,77l-18 49c-2,4 -2,5 -3,9 -1,2 -1,3 -2,5l-10 35c-3,15 -7,26 -10,40l-16 80 2 -21 0 0zm-8 14c0,0 0,-1 0,-1 0,-2 0,-1 0,-3l3 -17c0,-2 0,-4 1,-6l0 10c-5,23 -6,59 -9,79l-1 -8c-3,4 -4,13 -4,18l3 -42c1,-10 6,-61 10,-67 0,5 0,7 -1,11l-3 29 1 -3 0 0zm29 423c-11,-18 -27,-80 -32,-102 -4,-17 -7,-33 -10,-50 -3,-16 -4,-36 -8,-50l-1 4c0,1 0,3 0,4 6,50 4,43 17,100 8,35 22,78 36,112l3 0c1,1 2,3 3,4 5,10 8,20 15,31 0,-4 -22,-58 -24,-65 -14,-39 -25,-84 -33,-123 -2,-11 -9,-53 -11,-59 4,30 9,62 17,96 4,17 8,33 13,50 3,12 11,40 15,49l0 0zm23 30l-33 -104c0,-4 0,-2 0,-4 4,9 16,51 22,69l21 60c-1,4 0,4 2,10l13 31c-30,-49 -64,-152 -76,-211 -4,-18 -11,-52 -10,-67 5,17 10,67 22,107 6,19 10,37 17,55 2,7 21,55 21,55l0 0z"/>
    <path class="fil1" d="M806 2124c-15,-32 -28,-76 -36,-110 -7,-27 -12,-54 -17,-81l-3 -27c4,11 5,28 7,39 29,161 104,310 220,427 19,19 40,39 60,55 13,10 52,42 63,45 -6,-6 -22,-17 -30,-22 -78,-59 -143,-131 -197,-214 -51,-80 -103,-204 -116,-302 0,-1 0,-3 0,-5 0,0 0,-1 0,-1l0 -4c3,9 6,34 9,45 9,42 25,106 45,142 0,-4 -3,-9 -4,-12 6,10 11,24 16,36 6,13 12,25 18,37 60,117 151,215 256,290 21,15 95,61 115,65 -9,-7 -36,-20 -48,-27 -16,-9 -33,-19 -48,-30 -23,-16 -76,-52 -93,-72 6,8 59,47 70,55 47,34 97,61 150,84 38,17 78,30 118,39 16,4 33,9 49,11l73 10c41,3 85,4 127,1 15,-1 29,-4 43,-5 0,0 -70,4 -79,4 -70,1 -148,-7 -215,-26 -6,-2 -13,-3 -19,-6 13,2 28,8 41,10 66,13 148,21 216,17 29,-2 61,-4 91,-9 104,-19 197,-52 290,-109 18,-11 82,-55 90,-68 -13,8 -25,19 -37,28 -154,112 -336,163 -523,154 -16,-1 -31,-2 -46,-4 -8,-1 -20,-3 -27,-6 6,0 9,1 15,2 38,4 68,7 108,7 26,0 105,-3 127,-12 -12,0 -36,4 -50,5 -57,5 -115,4 -171,-3l-94 -18c-8,-2 -16,-4 -24,-6 -15,-4 -33,-8 -46,-15l7 1c-4,-2 -10,-4 -15,-6 -143,-58 -250,-129 -348,-256 -28,-36 -82,-116 -94,-158 13,22 29,64 46,83 -19,-34 -62,-117 -69,-153 9,17 21,55 32,78 13,27 27,55 44,81 71,114 173,209 289,271 16,8 49,27 65,30 -7,-5 -50,-25 -65,-33 -70,-40 -127,-82 -186,-142 -63,-64 -118,-148 -154,-232 -12,-28 -20,-53 -27,-79 5,9 10,28 14,40 15,40 37,94 62,127 -41,-83 -70,-141 -88,-233 -16,-78 -18,-148 -13,-216 2,-26 6,-52 10,-77 1,-5 2,-8 2,-13 1,-5 1,-8 2,-13 3,-16 8,-35 13,-50 26,-71 49,-126 88,-193 5,-8 9,-16 14,-23 4,-6 13,-17 14,-24l-8 7c6,-14 41,-54 54,-69 61,-68 154,-132 236,-176 4,-2 9,-4 11,-8 -11,1 -56,25 -69,32 4,-1 31,-18 39,-22 36,-18 78,-33 115,-45 37,-12 74,-21 112,-28 10,-2 29,-4 37,-8 -13,-8 -109,16 -133,23 -36,10 -72,24 -106,41 -11,5 -27,15 -37,19 7,-4 23,-12 29,-17 6,-5 -5,0 5,-5 60,-31 193,-68 259,-70 47,-1 92,-1 137,2 24,2 45,5 67,8l66 12c-6,-9 -49,-14 -59,-18 32,3 63,15 91,22 20,5 72,26 89,33 66,29 111,60 170,106 28,22 54,47 80,72 8,8 18,19 26,26 1,-13 -80,-87 -93,-98 -32,-26 -69,-52 -103,-69 -54,-28 -76,-41 -134,-62l-70 -22c-5,-1 -10,-2 -14,-4 18,0 39,12 57,12 -13,-11 -78,-23 -96,-28 -12,-3 -43,-7 -54,-8 -71,-7 -153,-5 -224,8 -39,7 -100,19 -136,35 4,-7 6,-7 -8,-2 -6,2 -12,3 -18,6 18,-12 64,-23 86,-28 28,-7 58,-13 86,-17 42,-6 82,-10 123,-11 10,0 33,1 41,-1 -9,-7 -76,-4 -95,-3 -36,1 -103,14 -105,14 -3,0 -2,0 -3,0l-15 0c-64,11 -126,33 -184,63 -79,40 -159,98 -219,160 -8,8 -13,8 -22,17 -56,56 -110,136 -139,208l-27 65c-17,44 -28,89 -37,135l-7 47c-8,69 -8,141 3,217 7,51 20,104 37,153 5,13 15,43 22,53zm113 -805c2,-2 3,-3 5,-6 2,-3 4,-4 7,-5l-19 29 41 -51c24,-31 71,-74 102,-99l60 -48c-44,27 -83,62 -120,97 -11,10 -24,26 -34,34 9,-18 80,-81 103,-99 -42,24 -115,107 -145,147l0 0zm-27 57c3,-3 13,-19 16,-24 38,-57 97,-120 149,-163 47,-39 134,-87 191,-113 8,-4 59,-24 60,-26 -5,-1 -15,3 -20,5 -4,1 -7,2 -11,3l-11 3c35,-18 124,-39 160,-44 46,-7 70,-10 114,-9 11,0 27,0 36,2l-32 1c-66,1 -173,14 -230,39 3,-3 59,-16 68,-18 60,-11 139,-22 200,-17 -6,1 -14,0 -20,0 -103,2 -224,23 -318,65 -94,42 -177,98 -249,172 -11,11 -20,22 -30,33 -6,7 -22,29 -26,33l23 -25 -51 66 9 -17c-12,6 -21,28 -29,36l0 0zm-137 289l3 -9c1,-3 1,-5 3,-8 1,7 -1,13 -1,19l28 -114 19 -52c14,-36 37,-87 57,-120 8,-14 16,-26 24,-39 -4,5 -9,13 -13,18 -31,48 -51,85 -72,139 -8,21 -16,45 -22,62l-23 80c-2,7 -4,15 -3,22l0 0zm4 161c0,-3 1,-64 2,-82 3,-33 7,-59 12,-90 3,-16 12,-54 17,-69 2,-7 4,-12 6,-19 2,-6 5,-13 7,-19l5 -19c2,-7 5,-13 7,-20 -10,17 -20,57 -26,78 -11,34 -24,102 -27,140 -1,6 -1,15 -2,21 -2,8 -1,-5 -3,5 -3,23 1,26 2,31 1,12 -1,31 2,43l0 0zm5 -32c1,-5 0,-13 3,-18 3,11 0,24 2,35l3 -70c1,-12 2,-23 4,-35 1,-6 2,-11 2,-17 0,-3 1,-5 2,-9l7 -43c1,-3 2,-5 3,-8l5 -26c5,-17 5,-20 9,-34 2,-6 3,-11 5,-17 1,-5 4,-12 5,-17l-24 78 -17 94c-1,4 -3,22 -3,24 3,-24 2,-33 7,-61l2 -12c1,-4 0,-8 2,-12l29 -109c-5,10 -18,48 -20,62 -1,10 -5,19 -8,31 -1,6 -1,11 -2,16l-8 48c-3,17 -8,82 -6,99l0 0zm21 27c2,-17 2,-15 2,-33 0,-25 3,-74 8,-98l3 -21c1,-5 1,-4 2,-9 0,-5 0,-4 2,-8l25 -100c-2,3 -3,5 -4,8 -10,31 -13,32 -21,73 -3,14 -7,28 -8,42 0,4 0,5 -1,9 -2,11 -3,22 -4,34 -3,22 -4,47 -4,69 0,10 -1,25 1,35l0 0zm-7 49c-8,-25 -2,-126 1,-154 4,-37 17,-115 31,-146l-4 16c-2,6 -3,9 -4,15 -3,21 -7,26 -11,48 -2,15 -6,27 -8,46 -3,22 -5,42 -6,65 0,11 -1,22 -1,33 0,9 0,24 1,32l2 -59c0,-6 0,-14 2,-20l-1 63c0,10 0,21 1,32 1,10 2,22 2,31l-2 -8c-2,3 0,1 -1,3 0,1 0,2 -1,2 0,0 0,1 0,1l0 0zm78 309c-18,-29 -35,-69 -47,-101 -8,-20 -17,-51 -23,-73 -2,-7 -4,-17 -6,-23 15,77 45,158 89,226 -3,-5 -3,-6 -3,-10l45 65c-5,-10 -13,-20 -19,-30 -7,-10 -13,-21 -19,-32 -11,-20 -22,-39 -32,-60 -9,-20 -18,-40 -25,-60 -6,-16 -13,-44 -21,-58 2,16 19,59 26,77l35 78 0 0zm25 21l-27 -52c-4,-9 -8,-17 -12,-26 -3,-8 -7,-19 -11,-26 3,4 13,25 15,31 19,42 33,63 56,102 0,0 -1,-1 -1,-1 0,3 -1,-1 -5,-4 0,5 6,13 9,18 -12,-6 -63,-106 -67,-115 -12,-26 -36,-84 -39,-111 5,11 10,30 15,44 5,15 11,30 18,45 14,32 29,64 48,93l0 0z"/>
    <path class="fil2" d="M1917 1556c7,-27 18,-52 29,-78 5,-13 11,-26 18,-37 3,-6 19,-30 18,-35 -11,8 -34,49 -42,67 -36,83 -52,165 -83,246 -11,27 -21,52 -35,74 -38,64 -98,110 -170,131 -7,2 -16,4 -22,6 23,-1 57,-16 78,-27 6,-3 17,-11 24,-13l-1 1c-1,1 -1,1 -2,2 -18,13 -43,23 -64,30 -11,4 -76,20 -84,13 3,-1 6,-1 9,-1l11 -1c0,0 1,0 1,0 -18,0 -34,1 -51,-1 -12,-1 -34,-7 -44,-7 25,6 41,10 70,10l1 2c-87,0 -153,-37 -204,-76 -53,-41 -94,-95 -119,-160 -25,-64 -32,-141 -65,-215 -13,-29 -27,-52 -46,-75 -3,-4 -6,-6 -9,-9 -20,-20 -55,-44 -95,-47l4 2c1,0 4,1 5,1 21,5 43,15 60,27 -17,-6 -27,-21 -76,-28 -5,-1 -10,-1 -15,-2 -4,0 -9,-1 -13,0 -6,2 -1,0 -3,2 16,3 36,1 51,8 37,19 42,13 74,46 5,6 9,9 14,16 4,6 9,13 13,18 -1,5 0,-4 -2,3 17,18 38,87 46,116 4,13 7,31 11,43l-17 -71c9,16 34,139 50,179 8,19 22,45 25,52 -7,-8 -11,-21 -17,-29 6,22 38,65 52,83 42,51 93,90 158,116 39,15 68,19 113,23 1,9 -5,60 -6,76 -1,16 -2,64 -6,76 -3,-47 10,-97 9,-144 -5,11 -8,98 -10,118 -7,63 -9,120 -11,183 -1,17 -4,45 -3,60 1,10 3,19 3,29 0,18 2,75 14,84 2,-9 -3,-20 -3,-29 0,-8 0,1 1,-6 1,-5 -1,-8 -1,-13 3,5 5,28 6,36 5,53 6,30 22,62 5,10 5,22 12,29 0,-5 -8,-32 -10,-39 -2,-6 -9,-37 -8,-40 2,6 5,33 13,47 2,5 1,3 5,5 0,-14 -7,-37 -9,-52 -4,-19 -5,-35 -7,-55 -3,-39 -6,-81 -5,-120 0,-16 2,-32 0,-47 -2,37 -1,54 -2,90 -7,-18 5,-242 6,-281 1,-16 0,-53 3,-66 79,-5 146,-29 202,-77l24 -23c32,-34 66,-102 83,-150 11,-30 38,-119 40,-148 -2,1 -1,0 -2,2 -4,6 -6,15 -8,22l-15 52c-5,17 -6,10 -10,24 -7,23 -23,82 -35,99 2,-8 7,-18 10,-27 17,-47 30,-95 45,-143 11,-37 25,-74 39,-110 2,-6 2,-9 3,-13 2,-4 4,-8 5,-13 1,-6 0,-5 4,-12 35,-70 62,-77 75,-95 -16,6 -51,50 -61,63 -6,8 -11,16 -16,25 -16,27 -28,56 -39,86 -3,7 -8,26 -11,30zm-235 381c2,-2 37,-18 50,-26 16,-10 31,-19 44,-31l29 -28 38 -50c1,-1 1,-1 2,-2 -7,18 -34,51 -48,65 -6,6 -12,12 -19,18 -18,15 -25,19 -44,31 -10,7 -39,20 -52,23l0 0z"/>
    <path class="fil2" d="M1568 1630l3 1c2,1 2,0 3,1l0 5c-12,2 -14,-1 -27,4 -9,3 -14,8 -21,11l7 -6c-9,3 -21,16 -26,22 -7,8 -13,19 -18,30 -28,62 -11,172 77,188 63,12 104,-24 123,-65 8,-17 11,-65 8,-86 -3,-19 -16,-60 -31,-67 1,6 11,23 15,34 4,10 -1,1 0,10 3,19 9,14 8,56 0,38 -17,76 -40,90 3,-5 10,-10 20,-27 6,-10 10,-21 14,-33 9,-32 8,-48 -1,-81 -4,-13 -14,-38 -21,-49 -9,-14 -22,-25 -38,-28 -3,0 -34,-7 -37,-11l18 3c-3,-5 -9,-4 -17,-6l-16 -3c0,6 1,2 -3,4zm52 93c5,7 15,98 -7,111 -3,-6 3,-14 3,-25 -3,12 -7,27 -18,31 0,-8 5,-4 7,-11 2,-7 -2,-10 -3,-15 -2,-9 7,-18 1,-32 0,17 2,1 -2,16 -1,4 1,1 -2,5 -9,-4 -4,-23 -4,-28 0,-4 -2,-6 -2,-10 0,-6 2,-13 1,-20 0,-7 -2,-15 -3,-22 -2,-14 -2,-29 -6,-42 -3,-11 -9,-26 -12,-37 3,3 3,4 5,8l-3 -8c-13,1 -20,3 -29,8 9,-3 15,-6 26,-6 -2,3 -5,3 -9,5 -12,4 -20,8 -29,15 -35,28 -46,90 -32,133 10,34 26,50 55,63 30,13 77,-2 87,-23 -3,2 -1,0 -3,2 -3,3 -3,5 -10,8 4,-7 18,-14 29,-47 15,-48 0,-117 -49,-147 -4,-3 -9,-4 -12,-9 15,0 25,9 34,16 -6,-9 -28,-21 -44,-23 3,8 9,18 13,27 13,32 10,37 16,62 2,10 3,25 6,33 1,-13 -4,-27 -3,-38l0 0zm33 -50c-4,-4 -6,-8 -10,-13l-11 -11c0,-1 0,-1 -1,-1 6,1 16,12 20,17 6,8 1,8 1,8l0 0z"/>
   </g>
   <g>
    <path class="fil2" d="M2332 1970c6,0 6,-2 8,-6 3,-5 14,-23 19,-19 5,4 -3,29 -4,34 -3,12 -6,23 -9,36 -4,16 -52,205 -52,212l30 0c9,-18 14,-37 24,-53l25 28c15,16 44,43 68,27 8,-6 21,-21 16,-36 -8,3 -7,14 -14,19 -8,6 -17,-5 -21,-9 -7,-6 -29,-28 -32,-35 26,-3 49,-6 63,-22 12,-14 19,-46 -16,-49 -39,-3 -60,19 -79,48 -5,8 -11,21 -16,27 2,-14 48,-185 54,-213 4,-14 9,-35 -9,-38 -28,-5 -58,39 -54,50zm25 189c4,-12 17,-28 24,-34 13,-11 36,-17 44,-9 5,5 3,18 0,24 -3,7 -8,11 -15,15 -14,6 -37,7 -53,5l0 0z"/>
    <path class="fil2" d="M3670 1970c13,-1 14,-27 28,-25 5,9 -10,58 -13,70 -6,24 -12,48 -18,71l-26 106c-2,9 -8,27 -8,35l32 0c3,-4 13,-27 15,-33 10,-21 23,-46 39,-63 3,-4 24,-23 34,-10 10,22 -42,99 -16,109 23,9 57,-21 59,-26 5,-15 -14,3 -16,5 -4,3 -7,6 -14,4 -4,-9 15,-54 19,-66 8,-22 23,-52 -14,-52 -60,-1 -79,68 -94,83 1,-10 50,-194 56,-217 4,-14 11,-36 -6,-41 -29,-8 -59,38 -56,50z"/>
    <path class="fil2" d="M2765 2134c13,-1 13,-18 27,-16 6,13 -7,64 -11,77l-21 -7 -9 26 23 7 -23 89 35 0 19 -81c19,1 23,5 44,-2 89,-30 113,-134 40,-133 -39,1 -54,34 -62,41 0,-11 10,-51 -26,-39 -12,4 -38,24 -37,36zm48 70c3,-23 20,-76 47,-86 12,-4 30,-3 34,9 6,17 -7,59 -15,71 -15,24 -40,13 -66,6l0 0z"/>
    <path class="fil2" d="M3248 2114l1 9 -18 54c-7,18 -21,52 6,56 26,4 47,-11 59,-23 14,-15 21,-31 31,-47l2 -3c-3,29 -19,85 -32,106 -17,29 -68,20 -77,10 -5,-7 -3,-14 -2,-20l-1 -7c-6,-2 -9,9 -11,15 -7,20 -24,48 24,47 35,-1 62,-25 78,-41 34,-34 42,-71 55,-122 4,-14 10,-34 12,-47 -37,0 -31,-3 -35,9 -1,4 -3,7 -4,11 -10,25 -36,83 -63,89 -25,5 -12,-27 -8,-39 10,-32 38,-85 -8,-74 -38,8 -54,47 -31,27 4,-3 12,-14 19,-9z"/>
    <path class="fil2" d="M4571 2189c-1,15 -15,75 -31,87 -17,13 -61,12 -70,-1 -6,-9 2,-18 -1,-26 -7,0 -9,8 -12,16 -7,17 -15,34 -1,42 7,4 16,5 25,5 33,-1 63,-25 78,-40 8,-8 20,-22 26,-32 7,-13 12,-27 17,-42 5,-15 9,-31 13,-46 4,-15 10,-33 12,-47 -36,-10 -61,-11 -95,4 -34,15 -80,62 -68,100 4,13 16,23 33,24 35,2 58,-25 72,-42zm17 -68c-2,31 -25,79 -52,90 -45,18 -45,-47 -19,-81 19,-25 40,-15 70,-9l0 0z"/>
    <path class="fil2" d="M4949 2182c-2,11 -6,22 -5,35 1,11 10,17 23,16 13,-2 28,-14 36,-23 1,-2 3,-4 5,-5 2,-3 3,-6 1,-8 -8,-2 -18,22 -29,18 -9,-15 24,-89 28,-107 -30,-12 -66,-14 -96,-2 -79,32 -84,127 -28,128 31,0 47,-23 62,-46 0,0 2,-2 2,-2 2,-2 1,-1 2,-2zm18 -61c-4,16 -20,48 -29,61 -5,8 -14,19 -22,24 -12,8 -25,6 -29,-6 -8,-22 4,-58 14,-72 16,-23 38,-18 65,-7l0 0z"/>
    <path class="fil2" d="M4147 1970c6,0 8,-4 14,-13 3,-5 8,-14 14,-11 4,9 -12,59 -15,71l-47 175c-3,10 -8,26 -9,35l33 0c5,-15 9,-33 13,-49l39 -148c5,-18 26,-87 21,-101 -6,-17 -27,-10 -40,1 -5,4 -26,27 -23,39z"/>
    <path class="fil2" d="M4333 2096c-23,2 -39,9 -54,20 -63,45 -52,124 24,115 42,-4 74,-31 88,-60 23,-47 -8,-80 -58,-75zm-9 10c15,-3 33,-1 38,11 4,10 -2,33 -5,43 -7,26 -16,54 -43,59 -15,3 -33,1 -38,-12 -7,-19 10,-63 19,-80 6,-12 13,-18 29,-22l0 0z"/>
    <path class="fil2" d="M3969 2097c-36,4 -74,28 -87,61 -20,48 11,80 61,74 41,-5 73,-32 87,-61 22,-48 -10,-79 -60,-74zm-8 10c15,-3 33,-2 38,11 4,10 -2,34 -5,44 -7,26 -16,53 -42,59 -45,9 -44,-22 -34,-55 8,-28 16,-52 43,-58l0 0z"/>
    <path class="fil2" d="M2217 2194c-9,2 -24,20 -50,20 -22,0 -41,-11 -44,-30 45,0 104,-15 108,-56 4,-45 -71,-38 -109,-10 -41,31 -53,83 -16,106 45,27 125,-14 112,-30zm-96 -17c0,-22 4,-42 15,-55 5,-6 13,-10 23,-12 25,-4 37,7 32,33 -7,31 -41,34 -70,34l0 0z"/>
    <path class="fil2" d="M2620 2096c-42,4 -75,31 -89,60 -31,67 43,102 111,56 60,-40 59,-123 -23,-115zm-7 10c47,-8 39,27 30,58 -9,28 -17,52 -45,56 -45,6 -39,-27 -30,-58 8,-28 17,-52 45,-56l0 0z"/>
    <path class="fil2" d="M3126 2100c-26,-2 -50,-12 -83,12 -24,17 -33,49 -3,63 12,6 25,8 38,12 12,4 30,13 15,26 -20,17 -63,-8 -75,-18 -1,-7 2,-15 -2,-19 -6,2 -6,17 -10,32 -2,8 -11,27 -9,35 8,0 10,-13 13,-19 28,10 55,15 82,0 30,-17 42,-47 20,-62 -7,-5 -27,-11 -37,-14 -12,-3 -33,-7 -33,-19 0,-25 63,-13 76,-1 0,6 -1,13 1,18 7,-1 7,-16 10,-31 2,-8 10,-26 10,-33 -8,0 -11,12 -13,18z"/>
    <path class="fil2" d="M3565 2100c-20,-3 -24,-7 -45,0 -34,11 -73,42 -78,81 -7,56 55,64 92,37 6,-4 24,-21 21,-31 -6,2 -15,13 -19,17 -19,17 -62,20 -57,-31 2,-19 8,-43 19,-53 14,-13 44,-2 55,7 0,9 -4,19 -2,26 6,0 6,-1 9,-13 3,-17 15,-47 14,-52 -6,0 -7,2 -10,12z"/>
    <path class="fil2" d="M4702 2134c11,1 17,-22 27,-14 9,11 -23,91 -25,108l34 0 31 -103c9,-40 -33,-32 -53,-11 -5,5 -15,11 -13,21z"/>
    <path class="fil2" d="M4763 2006c-29,8 -18,51 12,44 29,-7 17,-52 -12,-44z"/>
    <path class="fil2" d="M3452 1689c7,2 28,-27 30,-10 1,6 -16,52 -18,58 -7,19 -22,53 8,57 47,5 73,-43 90,-74 0,18 -19,87 -32,108 -7,10 -12,16 -29,18 -12,1 -33,1 -42,-5 -18,-10 1,-33 -9,-32 -5,1 -13,25 -15,32 -6,16 -3,25 13,29 27,7 54,-6 71,-18 45,-32 57,-60 72,-115l20 -75 -32 0c-7,23 -23,57 -34,75 -32,49 -56,42 -49,14 4,-16 27,-72 23,-84 -8,-27 -72,9 -66,23z"/>
    <path class="fil2" d="M2675 1675c9,19 -40,91 -11,113 18,13 42,-3 51,-12 9,-9 22,-29 30,-43 -1,16 -7,31 2,45 7,12 20,17 39,13 28,-5 48,-29 60,-49 12,-20 24,-69 0,-83 -23,-13 -38,19 -19,39 6,6 12,6 18,11 0,26 -18,55 -40,60 -10,3 -20,1 -25,-6 -11,-17 17,-87 23,-104l-33 3c-10,21 -40,102 -67,104 -10,1 -13,-7 -12,-16 1,-9 17,-55 20,-65 7,-20 4,-33 -21,-28 -14,3 -30,13 -37,20 -6,6 -8,17 4,7 3,-3 12,-12 18,-9z"/>
    <path class="fil2" d="M4176 1695c12,-1 15,-20 27,-16 10,11 -21,92 -26,108l34 0c15,-32 34,-81 61,-103 12,-10 32,-13 27,13 -4,17 -27,73 -24,85 6,26 69,-4 67,-23 -12,-1 -16,19 -30,14 -3,-9 14,-50 18,-62 7,-18 24,-50 -4,-55 -35,-7 -61,18 -79,44 -3,5 -14,20 -16,25 0,-16 25,-64 -1,-69 -23,-4 -55,27 -53,38z"/>
    <path class="fil2" d="M3001 1741c-1,13 -18,55 16,52 15,-1 43,-23 44,-37 -11,0 -23,24 -30,18 -9,-13 25,-90 28,-107 -36,-10 -59,-15 -96,-1 -25,10 -50,32 -59,56 -26,67 36,93 73,52 12,-14 20,-29 24,-33zm18 -60c-5,22 -30,71 -50,85 -11,8 -25,8 -30,-6 -7,-22 4,-57 14,-72 18,-26 37,-16 65,-7l0 0z"/>
    <path class="fil2" d="M4652 1692l0 -12c-5,-9 -2,-11 -12,-17 -6,-4 -15,-6 -24,-6 -49,-3 -99,29 -109,72 -16,64 56,76 103,55 10,-5 33,-17 30,-29 -9,0 -25,20 -52,20 -21,0 -41,-11 -44,-30 33,-1 85,-9 102,-39 3,-5 3,-10 6,-15zm-110 46c0,-29 6,-60 37,-66 48,-9 36,40 20,53 -14,11 -36,13 -57,13l0 0z"/>
    <path class="fil2" d="M4125 1756c-9,-4 -19,19 -52,19 -21,0 -40,-12 -43,-30 37,-1 103,-11 108,-55 5,-48 -75,-38 -109,-11 -13,11 -29,25 -35,46 -8,27 0,47 17,58 42,28 121,-8 115,-27zm-97 -19c0,-21 4,-42 15,-54 8,-9 39,-20 51,-7 12,13 2,40 -9,49 -14,11 -35,13 -57,13l0 0z"/>
    <path class="fil2" d="M2537 1658c-41,5 -75,32 -87,62 -20,49 13,80 62,73 40,-6 72,-31 86,-62 22,-48 -12,-79 -61,-73zm-6 10c47,-9 41,24 32,56 -4,13 -9,25 -14,36 -6,12 -13,19 -29,22 -45,9 -43,-24 -33,-56 9,-29 17,-52 44,-58l0 0z"/>
    <path class="fil2" d="M2350 1662l-26 -1 -3 15 26 -3c-4,23 -28,89 -24,107 7,33 88,2 82,-21 -9,-1 -12,14 -29,15 -18,2 -17,-15 -14,-29 5,-24 14,-49 20,-72l36 2 5 -15 -37 2 23 -77c-42,0 -34,-5 -41,18l-16 59z"/>
    <path class="fil2" d="M3768 1660c-12,-1 -19,-4 -33,-4 -47,0 -83,37 -69,65 10,18 44,21 64,30 15,6 12,21 -2,26 -21,7 -59,-11 -69,-22 0,-7 1,-14 -2,-19 -7,1 -6,17 -11,33 -2,8 -11,28 -9,34 7,-1 10,-12 13,-19 14,2 44,21 84,-1 28,-16 41,-47 18,-62 -9,-6 -26,-11 -38,-14 -11,-3 -33,-7 -31,-20 1,-13 24,-14 37,-13 11,1 31,7 38,13 0,8 -2,12 1,18 7,1 9,-24 11,-31 2,-8 11,-27 9,-33 -9,1 -8,11 -14,18z"/>
    <path class="fil2" d="M2263 1661c-25,-3 -44,-9 -71,4 -22,10 -43,34 -31,57 9,18 45,21 64,30 15,7 11,21 -2,25 -22,8 -57,-11 -69,-22 0,-7 2,-14 -2,-20 -5,2 -4,3 -6,15 -1,6 -3,12 -4,18 -2,8 -11,27 -9,34 7,1 7,-7 13,-18 26,11 57,14 82,0 29,-16 43,-46 21,-62 -8,-6 -25,-11 -37,-14 -11,-3 -33,-8 -34,-18 -1,-15 22,-16 36,-15 13,1 31,6 40,13 0,6 -2,14 2,18 6,-3 8,-24 10,-31 2,-8 10,-25 9,-32 -6,0 -6,3 -8,7 -2,4 -4,8 -5,11z"/>
    <path class="fil2" d="M3286 1713c1,-2 1,0 1,-3 0,-2 0,-1 0,-3 -1,-4 -5,-13 0,-22 6,-8 17,-7 26,-4 20,7 30,12 52,17 -16,13 -33,29 -53,44 -8,6 -54,39 -47,46 6,6 14,-9 38,-3 13,3 27,9 40,9 33,1 53,-37 51,-45 -12,1 -8,21 -34,14 -17,-5 -25,-9 -46,-8 3,-5 40,-33 49,-40 9,-7 17,-13 25,-20 5,-5 22,-16 21,-24 -13,-2 -8,10 -44,-4 -27,-11 -57,-24 -80,5 -7,9 -14,38 1,40z"/>
    <path class="fil2" d="M3914 1699c-4,5 -8,7 -12,11 -5,4 -8,7 -14,11 -13,10 -80,60 -73,67 6,6 12,-9 38,-3 27,6 50,19 74,-6 4,-4 20,-22 16,-30 -12,1 -8,21 -34,14 -17,-4 -26,-9 -46,-8 3,-5 71,-58 85,-70 4,-4 10,-7 10,-13 -12,-2 -9,9 -36,-1 -12,-4 -21,-9 -33,-12 -36,-10 -67,11 -63,43 1,4 4,16 8,12 5,-5 -11,-25 8,-32 11,-4 27,4 36,8 5,2 10,4 16,6 3,1 6,2 9,2 3,1 7,1 10,3z"/>
    <path class="fil2" d="M3109 1695c10,0 13,-17 26,-16 6,11 -5,44 -9,56l-17 53 34 0c14,-44 20,-72 50,-104l1 2c1,1 1,1 1,3 2,4 3,8 9,12 24,12 45,-24 24,-39 -29,-20 -50,31 -61,43 1,-12 18,-56 -20,-46 -12,3 -44,26 -38,37z"/>
    <path class="fil2" d="M4395 1694l4 0c6,-2 11,-16 23,-16 8,15 -21,89 -25,109l34 0 31 -103c6,-27 -11,-34 -33,-25 -10,4 -36,23 -33,34z"/>
    <path class="fil2" d="M4457 1566c-29,7 -20,51 10,44 11,-2 20,-13 17,-27 -2,-10 -14,-20 -27,-17z"/>
   </g>
  </g>
  <path class="fil1" d="M5408 1207l33 158c4,26 9,52 13,78 3,25 5,57 10,78 -5,-12 -16,-75 -19,-94 -19,-127 -42,-193 -74,-314 1,1 2,3 2,2 1,-7 2,3 10,14 3,-14 -6,-39 -10,-56 28,26 90,328 94,354 12,79 36,250 22,323 -6,-33 -4,-88 -7,-127 -3,-43 -8,-90 -14,-134 -13,-94 -31,-193 -60,-284l0 0z"/>
  <path class="fil1" d="M5458 1281c28,90 42,211 52,304 6,59 9,150 8,211 0,20 -3,47 0,65 16,-215 -5,-455 -72,-667 3,15 5,17 0,28l-73 -206c7,30 20,63 30,94 10,32 20,66 28,98 15,62 29,121 40,184 10,60 18,119 23,178 4,48 4,127 13,169 7,-43 -7,-170 -12,-224l-36 -234 0 0z"/>
  <path class="fil1" d="M5439 2162c2,71 -87,337 -115,410 -37,96 -130,295 -190,365l22 -40c9,-14 16,-21 23,-37 23,-53 39,-63 64,-119 18,-39 35,-69 55,-118 23,-56 45,-108 64,-168 9,-29 18,-57 26,-87 6,-23 18,-64 20,-87l-48 157c-5,15 -11,38 -20,51l50 -166c7,-27 15,-57 20,-85 5,-27 11,-59 19,-83l1 22c7,-7 2,-2 5,-7 1,-2 3,-6 4,-5 1,1 1,-2 2,-3l0 0z"/>
  <path class="fil1" d="M5385 2286c-18,44 -17,38 -31,87 -18,65 -63,194 -93,257l-23 53c-6,12 -6,10 -11,22 -4,12 -4,10 -11,21l-141 247c7,-8 11,-11 16,-19 49,-76 58,-75 110,-179 17,-34 38,-69 53,-105 4,-9 5,-13 9,-22 13,-28 24,-57 36,-87 23,-56 45,-122 62,-181 8,-28 21,-66 24,-94l0 0z"/>
  <path class="fil1" d="M5421 2375c-6,13 -10,35 -22,45 1,-31 17,-63 19,-95l-60 185c-11,31 -23,61 -35,91 -7,16 -13,28 -19,44 -4,9 -7,13 -11,22l-51 110c-5,8 -9,12 -13,20l-33 64c-27,42 -29,50 -49,83 -8,14 -16,26 -25,41 -7,12 -20,29 -26,40l123 -191 115 -237c5,-10 25,-57 26,-63 -25,61 -28,86 -62,158l-15 31c-6,11 -7,20 -13,31l-157 269c22,-24 84,-114 99,-149 11,-27 28,-47 44,-78 8,-14 12,-30 19,-42l58 -122c20,-44 83,-214 90,-258l0 0z"/>
  <path class="fil1" d="M5458 2293c-3,8 -49,170 -66,217 -32,85 -61,152 -98,232 -18,40 -73,135 -94,171 -11,18 -19,30 -29,47 -9,15 -21,31 -31,46l-28 48c-10,17 -22,32 -32,48 38,-38 96,-138 127,-188 53,-84 139,-255 176,-354 6,-16 14,-40 21,-54 10,-21 -1,15 11,-13 26,-59 16,-69 18,-84 5,-34 24,-83 25,-116l0 0z"/>
  <path class="fil1" d="M5350 2725l-15 21c-4,8 -7,12 -13,21 2,-19 11,-34 16,-51l-159 283 -88 125c-64,85 -164,206 -240,278 -32,31 -62,56 -93,85 14,-9 35,-28 47,-39 118,-106 198,-190 295,-319 38,-50 74,-107 105,-149l120 -198c10,-18 20,-37 25,-57l0 0z"/>
  <path class="fil1" d="M5541 2730l21 -54 -103 202c-17,36 -37,61 -55,99l-54 86c-3,5 -6,7 -9,12 -7,10 -7,12 -15,22l-85 118c-43,56 -103,125 -151,178 -13,14 -31,31 -40,44 15,-11 28,-28 42,-41 14,-14 28,-29 41,-43 26,-27 56,-58 79,-86 64,-78 86,-120 135,-187l59 -97c9,-17 20,-32 30,-49l79 -152c5,-11 5,-15 11,-27 6,-10 7,-15 13,-26l0 0z"/>
  <path class="fil1" d="M5582 2773c-7,14 -16,39 -32,48 3,-26 26,-64 34,-93l-92 183c-68,121 -140,237 -227,345l-132 162c42,-30 217,-260 254,-318l100 -157c-9,30 -92,161 -117,197 -15,22 -29,41 -45,64 -42,59 -98,127 -147,183 -14,16 -40,47 -52,57 89,-71 233,-276 299,-381 59,-93 112,-192 157,-292l0 0z"/>
  <path class="fil1" d="M5223 255c-33,-42 -97,-119 -122,-136 8,13 87,105 128,157l-6 -21z"/>
  <path class="fil1" d="M5022 4l83 0c10,10 19,20 28,30 13,14 25,27 37,40l40 136c-23,-28 -46,-55 -70,-83l-117 -123z"/>
  <path class="fil1" d="M4603 4l37 0c15,11 30,23 44,35 124,101 237,210 339,335 24,29 137,174 146,199 -31,-67 -145,-202 -195,-261 -34,-40 -70,-79 -107,-115 -28,-28 -90,-82 -110,-107 53,26 215,203 260,258 225,276 395,605 469,961 8,38 15,75 21,113 5,34 8,76 16,107 1,-10 -3,-25 0,-36 28,111 24,294 17,411 -2,32 -12,101 -10,128l4 -10c0,-1 0,-2 1,-3 1,-3 2,-9 2,-13 37,-270 -8,-639 -87,-889 -82,-262 -203,-502 -368,-716 -16,-21 -51,-61 -62,-82 25,17 108,131 134,167 43,59 84,125 121,191 224,396 315,851 274,1300 -3,32 -11,79 -9,110l12 -75c7,-76 13,-151 14,-229 1,-97 0,-224 -17,-320 11,31 18,120 20,157 10,144 4,295 -13,435 -26,213 -79,404 -152,582l-53 119c-58,116 -120,230 -199,334l-119 155c-98,128 -236,257 -380,359l-103 0c42,-29 79,-56 107,-78l0 0c-7,4 -11,6 -18,11 -8,5 -13,9 -23,7l73 -63 -147 106c-7,5 -15,11 -23,16l-21 0c77,-50 151,-104 212,-158 13,-11 51,-47 61,-52l0 0c-27,17 -68,66 -104,75l37 -39 -183 138 79 -51c-13,8 -73,54 -95,69 -9,6 -17,12 -26,17l-93 0c21,-12 42,-25 61,-37 45,-29 168,-112 194,-144l-26 12c7,-18 40,-41 54,-54 20,-17 37,-34 56,-52 153,-149 256,-279 377,-450 25,-35 50,-85 71,-123 6,-12 11,-20 16,-33 5,-12 11,-21 16,-32 28,-66 59,-130 83,-199 62,-180 108,-366 123,-587 18,-259 -14,-434 -64,-687 42,106 62,268 72,384 3,34 2,88 8,116 0,-76 -1,-147 -13,-231 -35,-250 -120,-514 -241,-731 -113,-203 -236,-360 -393,-517 -32,-32 -134,-118 -148,-135 40,19 115,92 151,126 267,250 468,578 573,934 25,83 43,167 57,250 13,71 17,181 29,233 9,-100 -45,-353 -71,-458 32,62 44,185 62,255 -2,-120 -88,-374 -136,-489 -170,-410 -402,-678 -741,-938l44 -13z"/>
  <path class="fil1" d="M5631 2381c-14,51 -30,101 -47,150 -21,61 -93,244 -131,305 -28,45 -49,99 -79,143 -30,45 -56,91 -90,138 -69,95 -129,173 -215,258 -79,78 -163,157 -252,230l249 0c60,-57 117,-116 173,-177 85,-93 150,-187 216,-280l90 -149c28,-52 45,-80 70,-135l16 -35 0 -131 -33 86 0 0c-4,9 -9,19 -12,29 -10,27 11,7 -16,51 -7,11 -8,17 -14,28 -22,44 -19,30 -26,36l-122 196c-7,10 -12,17 -18,26 -52,75 -224,298 -284,342 11,-17 28,-33 42,-49 81,-91 124,-143 197,-241 14,-18 25,-35 36,-52 12,-18 24,-33 34,-50 23,-38 43,-69 65,-104 22,-36 39,-72 59,-108l29 -55c7,-12 8,-17 13,-29l49 -111 0 -122 -17 50c-10,26 -60,158 -77,172 3,-12 5,-19 10,-28l31 -76 -5 7 0 0c0,1 -1,2 -1,2 -2,4 -1,2 -3,7l-21 43c-3,6 -3,10 -6,16l7 -27c29,-57 59,-153 82,-204l-3 21c1,-1 2,-2 4,-3l0 -172z"/>
  <path class="fil1" d="M5090 77c103,101 199,215 280,323 64,85 124,171 177,262 9,16 23,42 35,54 8,-40 -183,-315 -214,-356l-136 -167c-3,-14 -16,-26 -25,-36 -17,-20 -34,-40 -53,-59l-65 -22z"/>
  <path class="fil1" d="M10 3234c0,0 0,0 1,1 0,-1 0,-1 -1,-2l0 1zm0 -35c2,3 3,5 5,8 40,59 185,251 235,281 -17,-27 -74,-86 -99,-116 -33,-40 -65,-82 -96,-125 -12,-17 -28,-39 -45,-65l0 17zm0 -22l2 4c89,134 192,253 306,365 18,18 36,35 55,52l72 -14c-1,-1 -3,-3 -4,-4 -175,-163 -317,-325 -431,-511l0 108zm0 -142c66,111 141,215 226,310 33,37 100,117 138,140 -13,-18 -106,-113 -135,-148 -88,-106 -162,-210 -229,-325l0 24z"/>
  <path class="fil1" d="M10 789l0 -27c6,-8 13,-16 21,-20 -3,14 -12,30 -21,46z"/>
  <path class="fil1" d="M10 947c38,-75 89,-170 119,-209 32,-43 58,-94 92,-136 34,-42 64,-86 102,-129 78,-88 145,-160 239,-237 98,-80 203,-161 313,-232l-284 0c-66,52 -131,107 -193,164 -93,85 -167,172 -241,259l-103 139c-16,24 -30,43 -42,63l0 76c2,-2 3,-4 5,-7 8,-10 10,-16 17,-27 26,-41 22,-28 29,-34l140 -184c8,-9 13,-16 20,-24 58,-70 250,-276 315,-314 -12,15 -31,30 -46,45 -89,83 -137,131 -219,221 -15,17 -28,32 -41,48 -13,16 -27,31 -38,47 -27,36 -50,65 -75,98 -25,34 -46,68 -69,102l-34 53c-1,2 -3,4 -4,5l0 27c50,-86 107,-171 168,-250 76,-98 239,-288 334,-351 -13,9 -42,38 -57,52 -54,51 -116,114 -164,169 -18,21 -33,39 -50,59 -29,34 -123,156 -135,185l114 -147c42,-54 238,-267 283,-293l-147 149c-97,100 -180,209 -259,323l-87 139 0 21c13,-23 25,-42 31,-46 -4,12 -7,18 -12,26l-19 37 0 7 16 -27c3,-6 4,-10 8,-15l-9 26c-5,8 -10,17 -15,26l0 28 22 -44 0 0c7,-11 8,-15 15,-25 8,-12 8,-16 14,-26l93 -144c11,-16 24,-30 35,-46l68 -91c55,-62 81,-102 152,-174 26,-26 59,-53 87,-78 15,-13 30,-27 45,-39 14,-12 29,-27 45,-36 -11,12 -30,27 -44,40 -53,48 -119,112 -167,163l-96 110c-8,9 -9,11 -17,21 -4,5 -6,6 -10,11l-61 81c-22,36 -44,59 -64,93l-117 185 0 66z"/>
  <path class="fil1" d="M80 1410c5,-71 118,-328 153,-397 46,-92 157,-282 224,-346l-26 37c-10,13 -18,20 -26,35 -28,51 -44,59 -75,112 -21,37 -41,66 -66,113 -28,54 -54,104 -79,162 -12,28 -23,55 -34,85 -9,22 -23,62 -28,85l62 -151c7,-14 14,-37 24,-49l-65 161c-10,26 -20,56 -28,83 -7,27 -16,58 -26,81l1 -22c-8,6 -2,2 -6,6 -1,1 -3,5 -4,5 -1,-1 -1,2 -2,3l0 0z"/>
  <path class="fil1" d="M146 1291c22,-43 21,-37 39,-84 24,-63 81,-188 117,-247l28 -51c7,-11 7,-10 13,-21 6,-12 5,-9 13,-20l163 -233c-8,7 -12,10 -17,17 -56,71 -65,70 -126,168 -20,33 -44,65 -63,100 -5,9 -6,13 -11,21 -16,27 -29,55 -44,84 -28,54 -56,117 -78,174 -11,27 -27,64 -32,91l0 0z"/>
  <path class="fil1" d="M118 1199c7,-12 13,-34 26,-43 -4,30 -23,62 -28,93l77 -178c13,-30 29,-58 44,-87 8,-16 15,-27 23,-42 5,-8 8,-12 12,-21l61 -104c5,-8 10,-11 15,-19l39 -61c31,-39 33,-48 56,-78 9,-13 18,-25 29,-39 8,-11 23,-27 29,-38l-140 178 -137 225c-6,10 -31,54 -32,60 30,-58 36,-83 77,-152l17 -29c7,-10 9,-20 16,-30l181 -253c-24,21 -94,106 -112,140 -14,25 -32,45 -51,73 -9,14 -14,28 -23,40l-69 116c-24,42 -102,205 -113,249l0 0z"/>
  <path class="fil1" d="M74 1277c4,-8 64,-165 86,-210 39,-81 75,-145 119,-222 22,-38 85,-127 110,-161 13,-17 21,-28 33,-44 10,-14 24,-29 36,-43l33 -45c12,-16 25,-30 36,-45 -41,34 -108,129 -144,175 -61,79 -162,241 -208,337 -7,16 -18,38 -26,52 -12,20 3,-15 -12,12 -31,56 -22,67 -26,82 -8,33 -32,80 -36,113l0 0z"/>
  <path class="fil1" d="M222 858l17 -20c5,-7 9,-12 15,-19 -4,19 -14,32 -21,49l185 -267 99 -116c71,-79 182,-190 265,-254 35,-27 67,-50 101,-76 -15,8 -37,25 -50,35 -127,95 -215,171 -324,290 -42,46 -84,100 -119,138l-138 186c-12,17 -24,35 -30,54l0 0z"/>
  <path class="fil1" d="M10 2302l0 -47 12 109 0 0c-5,-20 -8,-41 -12,-62z"/>
  <path class="fil1" d="M1200 4l19 0c-27,13 -56,28 -78,35 10,-9 31,-21 58,-35z"/>
  <path class="fil1" d="M10 2558c67,249 178,485 320,697 40,59 185,251 235,281 -17,-27 -74,-86 -99,-116 -33,-40 -65,-82 -96,-125 -45,-63 -146,-209 -170,-278 7,26 106,180 127,212 89,134 192,253 306,365 4,4 8,8 12,12l87 0c-299,-283 -498,-568 -626,-981 -37,-120 -99,-380 -89,-500 12,71 12,195 38,259 -16,-107 -47,-364 -28,-463 7,53 1,163 7,235 7,84 17,169 34,254 72,364 242,711 484,984 33,37 100,117 138,140 -13,-18 -106,-113 -135,-148 -142,-171 -249,-338 -343,-551 -100,-227 -160,-498 -172,-750 -4,-84 1,-156 8,-231 3,28 -3,81 -3,116 -1,116 4,279 36,389 -26,-257 -41,-434 1,-690 36,-218 98,-399 177,-573 30,-66 67,-127 101,-191 6,-11 13,-20 19,-31 6,-12 11,-20 19,-31 24,-37 54,-84 82,-116 137,-159 251,-278 417,-413 20,-16 39,-31 60,-47 16,-11 50,-31 59,-49l-27 10c29,-29 160,-100 207,-125 71,-37 150,-70 233,-98l-141 0c-12,5 -24,11 -36,17 -38,18 -74,36 -110,56 -23,13 -87,54 -101,60l84 -43 -195 120 41 -35c-36,5 -82,51 -110,65l0 0c10,-4 51,-36 65,-46 97,-70 220,-138 341,-194l-25 0c-51,23 -99,46 -136,69l-156 92 78 -56c-9,-3 -14,1 -23,5 -8,4 -12,6 -19,9l0 0c50,-32 127,-77 211,-119l-124 0c-178,92 -360,226 -488,364l-133 143c-88,96 -160,204 -229,314l-64 114c-58,112 -108,230 -149,357l0 895c8,98 23,163 41,270 -1,-1 -2,-3 -2,-3 -2,7 -1,-3 -9,-15 -5,14 2,39 5,56 -11,-13 -24,-79 -35,-151l0 71c3,14 6,28 9,41 7,31 16,65 21,96l-29 -116 0 118z"/>
  <path class="fil1" d="M10 2648c26,87 58,172 95,256 31,69 65,139 102,201 23,38 94,159 118,178 -9,-21 -40,-64 -54,-87 -116,-184 -202,-382 -261,-592l0 44z"/>
  <path class="fil1" d="M5026 4l79 0c52,52 94,97 152,159 51,55 219,282 227,336 -14,-11 -110,-151 -123,-167 15,24 32,46 49,72 23,34 45,70 66,105l-15 0c-24,-40 -49,-79 -75,-118 -9,-13 -16,-22 -25,-36 -9,-12 -17,-26 -27,-35 13,29 50,65 58,99 -14,-7 -4,0 -13,-11 -2,-2 -6,-8 -9,-12 -42,-58 -90,-113 -134,-168 -39,-49 -83,-96 -124,-138 -27,-29 -56,-57 -85,-85z"/>
 </g>
</svg>
